<svg width="134" height="28" viewBox="0 0 134 28" fill="none" xmlns="http://www.w3.org/2000/svg">
<path d="M94.2713 12.3539C92.2782 17.1577 90.251 21.9445 88.3261 26.7654C87.9513 27.7023 87.5425 28.06 86.5204 27.9919C84.9021 27.8897 84.9191 27.9578 84.357 26.4928C82.6024 21.9275 80.8307 17.3792 79.0591 12.8138C78.991 12.6435 78.8888 12.4731 78.7184 12.1324C78.4118 14.1255 78.1392 15.9312 77.8667 17.7539C77.4067 20.9224 76.9468 24.0909 76.4868 27.2594C76.4357 27.6171 76.3335 27.8216 75.9076 27.8045C73.8294 27.7875 71.7682 27.7875 69.6899 27.8045C69.247 27.8045 69.2129 27.6853 69.2811 27.2594C70.4906 20.207 71.683 13.1375 72.8754 6.08502C73.165 4.33042 73.4887 2.57583 73.7442 0.804197C73.8124 0.344255 73.9316 0.173906 74.4086 0.190941C76.4187 0.207975 78.4458 0.22501 80.456 0.190941C81.0011 0.173906 81.1033 0.480534 81.2396 0.855302C82.8749 5.1992 84.5273 9.52607 86.1627 13.8529C86.2478 14.0744 86.35 14.3129 86.4352 14.5514C86.7759 14.4321 86.7589 14.1425 86.8441 13.9211C88.5646 9.57717 90.2851 5.25031 91.9545 0.889372C92.2271 0.173906 92.5678 -0.0305132 93.3003 0.00355663C95.0889 0.0716962 96.8776 0.0546613 98.6663 0.00355663C99.2795 -0.0134783 99.501 0.156871 99.5862 0.753092C100.029 3.95565 100.506 7.14118 100.983 10.3437C101.698 15.1646 102.397 19.9855 103.112 24.7893C103.249 25.6581 103.368 26.5269 103.521 27.3957C103.606 27.8556 103.453 27.9749 102.993 27.9749C100.983 27.9578 98.9559 27.9408 96.9457 27.9919C96.3155 28.0089 96.3495 27.6171 96.2984 27.2594C95.9237 24.3635 95.5659 21.4675 95.2082 18.5716C94.9527 16.4933 94.6801 14.4321 94.4246 12.3539C94.4075 12.3539 94.3394 12.3539 94.2713 12.3539Z" fill="#1E1E1E"/>
<path d="M133.641 27.8047C131.188 27.8047 128.786 27.8047 126.384 27.8047C125.992 27.8047 125.941 27.5492 125.839 27.2767C125.362 25.965 124.868 24.6874 124.425 23.3757C124.289 22.9668 124.101 22.8476 123.709 22.8476C120.779 22.8646 117.866 22.8646 114.936 22.8476C114.477 22.8476 114.306 23.035 114.17 23.4268C113.693 24.7214 113.199 26.0161 112.705 27.3107C112.603 27.5833 112.535 27.8218 112.143 27.8047C109.758 27.7877 107.39 27.7877 104.92 27.7877C105.993 24.9599 107.032 22.2173 108.071 19.4747C110.439 13.274 112.824 7.07326 115.158 0.855522C115.396 0.22523 115.652 -0.0132585 116.35 0.00377645C118.446 0.0719161 120.558 0.0719161 122.653 0.0548812C123.13 0.0548812 123.335 0.22523 123.505 0.651103C126.827 9.52629 130.166 18.3844 133.487 27.2426C133.556 27.3959 133.573 27.5662 133.641 27.8047Z" fill="#1E1E1E"/>
<path d="M48.9618 12.4734C50.9719 12.4734 52.9991 12.4734 55.0092 12.4734C55.3328 12.4734 55.6224 12.4223 55.6054 12.9163C55.5713 16.153 55.1455 19.3044 53.3568 22.1152C51.3126 25.3007 48.3315 27.0723 44.669 27.6174C41.0235 28.1626 37.4632 27.8048 34.2607 25.7777C30.7174 23.512 28.8265 20.1902 28.2985 16.0508C27.8556 12.5927 28.3666 9.30493 30.1893 6.32382C32.5742 2.40579 36.1856 0.429744 40.7169 0.0720109C42.9996 -0.115373 45.2311 0.0549759 47.4116 0.838581C50.4779 1.94585 52.5051 4.12632 53.9871 6.92004C54.1574 7.24371 54.1234 7.39702 53.7656 7.5333C51.9088 8.28283 50.035 9.01534 48.1952 9.81598C47.6331 10.0545 47.5649 9.69673 47.3946 9.3901C46.4917 7.65254 45.163 6.5112 43.187 6.15347C40.4784 5.65946 38.0084 6.76673 36.6115 9.15161C34.5162 12.7289 34.8739 17.2432 37.4973 20.071C39.5756 22.3026 43.3743 22.7114 45.8274 20.9568C46.8835 20.1902 47.3775 19.1341 47.616 17.8905C47.7012 17.4306 47.5138 17.4476 47.1902 17.4476C45.7763 17.4476 44.3453 17.4306 42.9314 17.4646C42.4204 17.4817 42.233 17.3795 42.25 16.8173C42.3011 15.5908 42.2841 14.3813 42.25 13.1548C42.233 12.6267 42.3863 12.4905 42.9144 12.4905C44.9245 12.4905 46.9346 12.4734 48.9618 12.4734Z" fill="#1E1E1E"/>
<path d="M0.339844 27.975C1.22566 25.6242 2.09444 23.3245 2.96322 21.0248C5.50142 14.3641 8.03962 7.70346 10.5437 1.04281C10.7482 0.514729 10.9696 0.293275 11.5658 0.293275C13.7293 0.293275 15.8757 0.259205 18.0391 0.208101C18.465 0.191066 18.6864 0.31031 18.8397 0.736183C22.1786 9.69654 25.5345 18.6399 28.8903 27.5832C28.9244 27.6854 28.9244 27.8046 28.9585 27.958C26.5395 27.958 24.1546 27.9409 21.7697 27.975C21.3439 27.975 21.2587 27.7195 21.1565 27.4299C20.6965 26.1182 20.2196 24.8235 19.8107 23.4948C19.6574 23.0178 19.47 22.8305 18.942 22.8305C16.0801 22.8645 13.2012 22.8645 10.3393 22.8305C9.84532 22.8305 9.65793 23.0008 9.50462 23.4437C9.01061 24.8065 8.48253 26.1352 7.95444 27.481C7.85223 27.7365 7.81816 27.975 7.40933 27.975C5.07555 27.958 2.7588 27.975 0.339844 27.975Z" fill="#1E1E1E"/>
<path d="M58.1024 13.802C58.1024 10.6505 58.1365 7.49905 58.0854 4.34759C58.0513 2.52485 58.9371 1.31538 60.4532 0.548805C61.9864 -0.217766 63.5366 -0.115556 64.9505 0.872468C66.177 1.72421 66.7902 2.88259 66.7732 4.39869C66.7562 10.7527 66.7732 17.1067 66.7562 23.4607C66.7562 25.8797 64.8823 27.6684 62.3782 27.6513C59.9081 27.6513 58.0684 25.8627 58.0684 23.4778C58.0854 20.2752 58.1024 17.0386 58.1024 13.802Z" fill="#1E1E1E"/>
</svg>
