<svg width="157" height="40" viewBox="0 0 157 40" fill="none" xmlns="http://www.w3.org/2000/svg">
<path fill-rule="evenodd" clip-rule="evenodd" d="M116.111 20V40H136.111H156.111V20V0H136.111H116.111V20ZM0.333075 4.81245C0.240222 4.91787 0.225928 23.5159 0.318666 23.5159C0.351577 23.5159 0.376303 23.6888 0.376303 23.9193C0.376303 24.1499 0.401029 24.3228 0.43394 24.3228C0.46564 24.3228 0.491577 24.4265 0.491577 24.5533C0.491577 24.6801 0.517513 24.7839 0.549213 24.7839C0.580914 24.7839 0.60685 24.8617 0.60685 24.9568C0.60685 25.0519 0.632787 25.1297 0.664487 25.1297C0.696187 25.1297 0.722124 25.2075 0.722124 25.3026C0.722124 25.3977 0.748061 25.4755 0.779761 25.4755C0.811461 25.4755 0.837398 25.5274 0.837398 25.5908C0.837398 25.6542 0.863334 25.7061 0.895035 25.7061C0.926735 25.7061 0.952672 25.7522 0.952672 25.8086C0.952672 25.865 1.00454 25.9485 1.06795 25.9942C1.13135 26.0399 1.18322 26.1178 1.18322 26.1671C1.18322 26.2165 1.23509 26.2944 1.29849 26.3401C1.36189 26.3858 1.41377 26.4567 1.41377 26.4976C1.41377 26.5948 2.48472 27.6657 2.58184 27.6657C2.62282 27.6657 2.69371 27.7176 2.73942 27.781C2.78512 27.8444 2.86293 27.8963 2.91233 27.8963C2.96172 27.8963 3.03953 27.9481 3.08524 28.0115C3.13094 28.0749 3.21446 28.1268 3.27089 28.1268C3.32725 28.1268 3.37342 28.1527 3.37342 28.1844C3.37342 28.2161 3.42529 28.2421 3.48869 28.2421C3.5521 28.2421 3.60397 28.268 3.60397 28.2997C3.60397 28.3314 3.65584 28.3573 3.71924 28.3573C3.78264 28.3573 3.83452 28.3833 3.83452 28.415C3.83452 28.4467 3.88639 28.4726 3.94979 28.4726C4.01319 28.4726 4.06506 28.4986 4.06506 28.5303C4.06506 28.562 4.14287 28.5879 4.23797 28.5879C4.33308 28.5879 4.41089 28.6138 4.41089 28.6455C4.41089 28.6772 4.4887 28.7032 4.5838 28.7032C4.6789 28.7032 4.75671 28.7291 4.75671 28.7608C4.75671 28.7925 4.80858 28.8184 4.87198 28.8184C4.93538 28.8184 4.98725 28.8444 4.98725 28.8761C4.98725 28.9078 5.091 28.9337 5.2178 28.9337C5.3446 28.9337 5.44835 28.9597 5.44835 28.9914C5.44835 29.0231 5.52616 29.049 5.62126 29.049C5.71636 29.049 5.79417 29.0749 5.79417 29.1066C5.79417 29.1383 5.89792 29.1643 6.02472 29.1643C6.15152 29.1643 6.25527 29.1902 6.25527 29.2219C6.25527 29.2536 6.38495 29.2795 6.54345 29.2795C6.70195 29.2795 6.83163 29.3055 6.83163 29.3372C6.83163 29.3708 7.02374 29.3948 7.29273 29.3948C7.56172 29.3948 7.75383 29.4188 7.75383 29.4525C7.75383 29.4889 8.17648 29.5101 8.90656 29.5101C9.63665 29.5101 10.0593 29.4889 10.0593 29.4525C10.0593 29.4195 10.2322 29.3948 10.4628 29.3948C10.6933 29.3948 10.8662 29.3701 10.8662 29.3372C10.8662 29.3055 10.9959 29.2795 11.1544 29.2795C11.3129 29.2795 11.4426 29.2536 11.4426 29.2219C11.4426 29.1902 11.5463 29.1643 11.6731 29.1643C11.7999 29.1643 11.9037 29.1383 11.9037 29.1066C11.9037 29.0749 12.0074 29.049 12.1342 29.049C12.261 29.049 12.3648 29.0231 12.3648 28.9914C12.3648 28.9597 12.4426 28.9337 12.5377 28.9337C12.6328 28.9337 12.7106 28.9078 12.7106 28.8761C12.7106 28.8444 12.7884 28.8184 12.8835 28.8184C12.9786 28.8184 13.0564 28.7925 13.0564 28.7608C13.0564 28.7291 13.1342 28.7032 13.2293 28.7032C13.3244 28.7032 13.4022 28.6772 13.4022 28.6455C13.4022 28.6138 13.4541 28.5879 13.5175 28.5879C13.5809 28.5879 13.6328 28.562 13.6328 28.5303C13.6328 28.4986 13.6847 28.4726 13.7481 28.4726C13.8115 28.4726 13.8633 28.4467 13.8633 28.415C13.8633 28.3833 13.9411 28.3573 14.0362 28.3573C14.1313 28.3573 14.2092 28.3314 14.2092 28.2997C14.2092 28.268 14.2553 28.2421 14.3117 28.2421C14.3681 28.2421 14.4516 28.1902 14.4973 28.1268C14.543 28.0634 14.6209 28.0115 14.6703 28.0115C14.7196 28.0115 14.7975 27.9597 14.8432 27.8963C14.8889 27.8329 14.962 27.781 15.0057 27.781C15.0493 27.781 15.1578 27.7032 15.2466 27.6081C15.3354 27.513 15.4373 27.4352 15.473 27.4352C15.5568 27.4352 16.0535 26.9394 16.0535 26.8558C16.0535 26.8208 16.1573 26.6925 16.2841 26.5706C16.4109 26.4488 16.5146 26.3139 16.5146 26.2708C16.5146 26.2278 16.5665 26.1552 16.6299 26.1095C16.6933 26.0638 16.7452 25.9803 16.7452 25.9239C16.7452 25.8675 16.7711 25.8213 16.8028 25.8213C16.8345 25.8213 16.8605 25.7695 16.8605 25.7061C16.8605 25.6427 16.8864 25.5908 16.9181 25.5908C16.9498 25.5908 16.9757 25.513 16.9757 25.4179C16.9757 25.3228 17.0017 25.245 17.0334 25.245C17.0651 25.245 17.091 25.1931 17.091 25.1297C17.091 25.0663 17.1169 25.0144 17.1486 25.0144C17.1803 25.0144 17.2063 24.9107 17.2063 24.7839C17.2063 24.6571 17.2322 24.5533 17.2639 24.5533C17.2956 24.5533 17.3215 24.4496 17.3215 24.3228C17.3215 24.196 17.3475 24.0922 17.3792 24.0922C17.4144 24.0922 17.4368 23.8232 17.4368 23.4006C17.4368 22.9779 17.4592 22.7089 17.4945 22.7089C17.5322 22.7089 17.5521 21.6715 17.5521 19.7118C17.5521 17.7522 17.5322 16.7147 17.4945 16.7147C17.4592 16.7147 17.4368 16.4457 17.4368 16.0231C17.4368 15.6004 17.4144 15.3314 17.3792 15.3314C17.3475 15.3314 17.3215 15.2017 17.3215 15.0432C17.3215 14.8847 17.2956 14.755 17.2639 14.755C17.2322 14.755 17.2063 14.6772 17.2063 14.5821C17.2063 14.487 17.1803 14.4092 17.1486 14.4092C17.1169 14.4092 17.091 14.3314 17.091 14.2363C17.091 14.1412 17.0651 14.0634 17.0334 14.0634C17.0017 14.0634 16.9757 14.0115 16.9757 13.9481C16.9757 13.8847 16.9498 13.8329 16.9181 13.8329C16.8864 13.8329 16.8605 13.781 16.8605 13.7176C16.8605 13.6542 16.8345 13.6023 16.8028 13.6023C16.7711 13.6023 16.7452 13.5561 16.7452 13.4998C16.7452 13.4433 16.6933 13.3598 16.6299 13.3141C16.5665 13.2684 16.5146 13.1953 16.5146 13.1516C16.5146 13.108 16.4368 12.9995 16.3417 12.9107C16.2466 12.8218 16.1688 12.7198 16.1688 12.6839C16.1688 12.599 15.7888 12.219 15.704 12.219C15.6681 12.219 15.566 12.1412 15.4772 12.0461C15.3884 11.951 15.2799 11.8732 15.2362 11.8732C15.1926 11.8732 15.1194 11.8213 15.0737 11.7579C15.028 11.6945 14.9445 11.6427 14.8881 11.6427C14.8317 11.6427 14.7855 11.6167 14.7855 11.585C14.7855 11.5533 14.7337 11.5274 14.6703 11.5274C14.6069 11.5274 14.555 11.5014 14.555 11.4697C14.555 11.438 14.5031 11.4121 14.4397 11.4121C14.3763 11.4121 14.3244 11.3862 14.3244 11.3545C14.3244 11.3228 14.2726 11.2968 14.2092 11.2968C14.1458 11.2968 14.0939 11.2709 14.0939 11.2392C14.0939 11.2075 14.0161 11.1816 13.921 11.1816C13.8259 11.1816 13.7481 11.1556 13.7481 11.1239C13.7481 11.0922 13.6703 11.0663 13.5752 11.0663C13.4801 11.0663 13.4022 11.0403 13.4022 11.0086C13.4022 10.9769 13.2985 10.951 13.1717 10.951C13.0449 10.951 12.9411 10.9251 12.9411 10.8934C12.9411 10.8617 12.8115 10.8357 12.653 10.8357C12.4945 10.8357 12.3648 10.8098 12.3648 10.7781C12.3648 10.7461 12.2111 10.7205 12.019 10.7205C11.8269 10.7205 11.6731 10.6949 11.6731 10.6628C11.6731 10.6259 11.1544 10.6052 10.2322 10.6052C9.31002 10.6052 8.79129 10.6259 8.79129 10.6628C8.79129 10.6949 8.63757 10.7205 8.44547 10.7205C8.25336 10.7205 8.09965 10.7461 8.09965 10.7781C8.09965 10.8098 7.9959 10.8357 7.8691 10.8357C7.7423 10.8357 7.63855 10.8617 7.63855 10.8934C7.63855 10.9251 7.5348 10.951 7.408 10.951C7.2812 10.951 7.17746 10.9769 7.17746 11.0086C7.17746 11.0403 7.09965 11.0663 7.00455 11.0663C6.90944 11.0663 6.83163 11.0922 6.83163 11.1239C6.83163 11.1556 6.75383 11.1816 6.65872 11.1816C6.56362 11.1816 6.48581 11.2075 6.48581 11.2392C6.48581 11.2709 6.408 11.2968 6.3129 11.2968C6.2178 11.2968 6.13999 11.3228 6.13999 11.3545C6.13999 11.3862 6.08812 11.4121 6.02472 11.4121C5.96132 11.4121 5.90944 11.438 5.90944 11.4697C5.90944 11.5014 5.85757 11.5274 5.79417 11.5274C5.73077 11.5274 5.6789 11.5533 5.6789 11.585C5.6789 11.6167 5.62702 11.6427 5.56362 11.6427C5.50022 11.6427 5.44835 11.6686 5.44835 11.7003C5.44835 11.732 5.37054 11.7579 5.27544 11.7579C5.18034 11.7579 5.10253 11.7839 5.10253 11.8156C5.10253 11.8473 5.05636 11.8732 4.99999 11.8732C4.94357 11.8732 4.86005 11.9251 4.81434 11.9885C4.76864 12.0519 4.68512 12.1037 4.62869 12.1037C4.57233 12.1037 4.52616 12.1297 4.52616 12.1614C4.52616 12.1931 4.47429 12.219 4.41089 12.219C4.34748 12.219 4.29561 12.245 4.29561 12.2767C4.29561 12.3084 4.26967 12.3343 4.23797 12.3343C4.20011 12.3343 4.18034 11.0278 4.18034 8.53026V4.72622L2.29273 4.72842C0.736533 4.7302 0.392499 4.74496 0.333075 4.81245ZM28.042 10.5476C28.042 10.5812 27.8499 10.6052 27.5809 10.6052C27.3119 10.6052 27.1198 10.6292 27.1198 10.6628C27.1198 10.6945 26.9901 10.7205 26.8316 10.7205C26.6731 10.7205 26.5435 10.7464 26.5435 10.7781C26.5435 10.8098 26.4397 10.8357 26.3129 10.8357C26.1861 10.8357 26.0824 10.8617 26.0824 10.8934C26.0824 10.9251 25.9786 10.951 25.8518 10.951C25.725 10.951 25.6213 10.9769 25.6213 11.0086C25.6213 11.0403 25.5435 11.0663 25.4484 11.0663C25.3533 11.0663 25.2754 11.0922 25.2754 11.1239C25.2754 11.1556 25.1976 11.1816 25.1025 11.1816C25.0074 11.1816 24.9296 11.2075 24.9296 11.2392C24.9296 11.2709 24.8518 11.2968 24.7567 11.2968C24.6616 11.2968 24.5838 11.3228 24.5838 11.3545C24.5838 11.3862 24.506 11.4121 24.4109 11.4121C24.3158 11.4121 24.238 11.438 24.238 11.4697C24.238 11.5014 24.1861 11.5274 24.1227 11.5274C24.0593 11.5274 24.0074 11.5533 24.0074 11.585C24.0074 11.6167 23.9556 11.6427 23.8922 11.6427C23.8288 11.6427 23.7769 11.6686 23.7769 11.7003C23.7769 11.732 23.725 11.7579 23.6616 11.7579C23.5982 11.7579 23.5463 11.7839 23.5463 11.8156C23.5463 11.8473 23.4945 11.8732 23.4311 11.8732C23.3677 11.8732 23.3158 11.8991 23.3158 11.9308C23.3158 11.9625 23.2696 11.9885 23.2132 11.9885C23.1568 11.9885 23.0733 12.0403 23.0276 12.1037C22.9819 12.1671 22.9111 12.219 22.8702 12.219C22.8293 12.219 22.4979 12.517 22.1336 12.8812C21.7694 13.2455 21.4714 13.5769 21.4714 13.6178C21.4714 13.6587 21.4195 13.7295 21.3561 13.7752C21.2927 13.8209 21.2409 13.9044 21.2409 13.9609C21.2409 14.0172 21.2149 14.0634 21.1832 14.0634C21.1515 14.0634 21.1256 14.1153 21.1256 14.1787C21.1256 14.2421 21.0996 14.2939 21.0679 14.2939C21.0362 14.2939 21.0103 14.3458 21.0103 14.4092C21.0103 14.4726 20.9844 14.5245 20.9527 14.5245C20.921 14.5245 20.895 14.5764 20.895 14.6398C20.895 14.7032 20.8691 14.755 20.8374 14.755C20.8057 14.755 20.7798 14.8329 20.7798 14.928C20.7798 15.0231 20.7538 15.1009 20.7221 15.1009C20.6904 15.1009 20.6645 15.1787 20.6645 15.2738C20.6645 15.3689 20.6386 15.4467 20.6069 15.4467C20.5752 15.4467 20.5492 15.5504 20.5492 15.6772C20.5492 15.804 20.5233 15.9078 20.4916 15.9078C20.4587 15.9078 20.4339 16.0807 20.4339 16.3112C20.4339 16.5418 20.4092 16.7147 20.3763 16.7147C20.3386 16.7147 20.3187 17.7906 20.3187 19.8271C20.3187 21.8636 20.3386 22.9395 20.3763 22.9395C20.4112 22.9395 20.4339 23.1892 20.4339 23.5735C20.4339 23.9578 20.4566 24.2075 20.4916 24.2075C20.5233 24.2075 20.5492 24.3112 20.5492 24.438C20.5492 24.5648 20.5752 24.6686 20.6069 24.6686C20.6386 24.6686 20.6645 24.7464 20.6645 24.8415C20.6645 24.9366 20.6904 25.0144 20.7221 25.0144C20.7538 25.0144 20.7798 25.0922 20.7798 25.1873C20.7798 25.2824 20.8057 25.3602 20.8374 25.3602C20.8691 25.3602 20.895 25.4121 20.895 25.4755C20.895 25.5389 20.921 25.5908 20.9527 25.5908C20.9844 25.5908 21.0103 25.6427 21.0103 25.7061C21.0103 25.7695 21.0362 25.8213 21.0679 25.8213C21.0996 25.8213 21.1256 25.8675 21.1256 25.9239C21.1256 25.9803 21.1775 26.0638 21.2409 26.1095C21.3043 26.1552 21.3561 26.2278 21.3561 26.2708C21.3561 26.3139 21.4599 26.4488 21.5867 26.5706C21.7135 26.6925 21.8172 26.8209 21.8172 26.8562C21.8172 26.9395 22.1976 27.3199 22.2809 27.3199C22.3162 27.3199 22.4447 27.4236 22.5665 27.5504C22.6884 27.6772 22.8232 27.781 22.8663 27.781C22.9093 27.781 22.9819 27.8329 23.0276 27.8963C23.0733 27.9597 23.1511 28.0115 23.2005 28.0115C23.2499 28.0115 23.3277 28.0634 23.3734 28.1268C23.4191 28.1902 23.5026 28.2421 23.5591 28.2421C23.6154 28.2421 23.6616 28.268 23.6616 28.2997C23.6616 28.3314 23.7135 28.3573 23.7769 28.3573C23.8403 28.3573 23.8922 28.3833 23.8922 28.415C23.8922 28.4467 23.944 28.4726 24.0074 28.4726C24.0708 28.4726 24.1227 28.4986 24.1227 28.5303C24.1227 28.562 24.1746 28.5879 24.238 28.5879C24.3014 28.5879 24.3533 28.6138 24.3533 28.6455C24.3533 28.6772 24.4311 28.7032 24.5262 28.7032C24.6213 28.7032 24.6991 28.7291 24.6991 28.7608C24.6991 28.7925 24.7509 28.8184 24.8143 28.8184C24.8777 28.8184 24.9296 28.8444 24.9296 28.8761C24.9296 28.9078 25.0074 28.9337 25.1025 28.9337C25.1976 28.9337 25.2754 28.9597 25.2754 28.9914C25.2754 29.0231 25.3792 29.049 25.506 29.049C25.6328 29.049 25.7365 29.0749 25.7365 29.1066C25.7365 29.1383 25.8403 29.1643 25.9671 29.1643C26.0939 29.1643 26.1976 29.1902 26.1976 29.2219C26.1976 29.2536 26.3273 29.2795 26.4858 29.2795C26.6443 29.2795 26.774 29.3055 26.774 29.3372C26.774 29.3708 26.9661 29.3948 27.2351 29.3948C27.5041 29.3948 27.6962 29.4188 27.6962 29.4525C27.6962 29.4891 28.1573 29.5101 28.9642 29.5101C29.7711 29.5101 30.2322 29.4891 30.2322 29.4525C30.2322 29.4183 30.4436 29.3948 30.7509 29.3948C31.0583 29.3948 31.2697 29.3714 31.2697 29.3372C31.2697 29.3051 31.4234 29.2795 31.6155 29.2795C31.8076 29.2795 31.9613 29.254 31.9613 29.2219C31.9613 29.1902 32.0651 29.1643 32.1919 29.1643C32.3187 29.1643 32.4224 29.1383 32.4224 29.1066C32.4224 29.0749 32.5002 29.049 32.5953 29.049C32.6904 29.049 32.7682 29.0231 32.7682 28.9914C32.7682 28.9597 32.872 28.9337 32.9988 28.9337C33.1256 28.9337 33.2293 28.9078 33.2293 28.8761C33.2293 28.8444 33.2812 28.8184 33.3446 28.8184C33.408 28.8184 33.4599 28.7925 33.4599 28.7608C33.4599 28.7291 33.5377 28.7032 33.6328 28.7032C33.7279 28.7032 33.8057 28.6772 33.8057 28.6455C33.8057 28.6138 33.8576 28.5879 33.921 28.5879C33.9844 28.5879 34.0363 28.562 34.0363 28.5303C34.0363 28.4986 34.0881 28.4726 34.1515 28.4726C34.2149 28.4726 34.2668 28.4467 34.2668 28.415C34.2668 28.3833 34.313 28.3573 34.3693 28.3573C34.4258 28.3573 34.5093 28.3055 34.555 28.2421C34.6007 28.1787 34.6842 28.1268 34.7406 28.1268C34.797 28.1268 34.8432 28.1009 34.8432 28.0692C34.8432 28.0375 34.8893 28.0115 34.9457 28.0115C35.0021 28.0115 35.0856 27.9597 35.1314 27.8963C35.1771 27.8329 35.2493 27.781 35.2919 27.781C35.3345 27.781 35.4957 27.6513 35.6501 27.4928C35.8045 27.3343 35.9596 27.2046 35.9948 27.2046C36.0783 27.2046 36.3417 26.9405 36.3417 26.8569C36.3417 26.8213 36.4455 26.6925 36.5723 26.5706C36.6991 26.4488 36.8028 26.3139 36.8028 26.2708C36.8028 26.2278 36.8547 26.1552 36.9181 26.1095C36.9815 26.0638 37.0334 25.9803 37.0334 25.9239C37.0334 25.8675 37.0593 25.8213 37.091 25.8213C37.1227 25.8213 37.1486 25.7695 37.1486 25.7061C37.1486 25.6427 37.1746 25.5908 37.2063 25.5908C37.238 25.5908 37.2639 25.5389 37.2639 25.4755C37.2639 25.4121 37.2899 25.3602 37.3216 25.3602C37.3533 25.3602 37.3792 25.2824 37.3792 25.1873C37.3792 25.0922 37.4051 25.0144 37.4368 25.0144C37.4685 25.0144 37.4945 24.9366 37.4945 24.8415C37.4945 24.7464 37.5204 24.6686 37.5521 24.6686C37.5856 24.6686 37.6097 24.478 37.6097 24.2123C37.6097 23.9036 37.633 23.7451 37.6818 23.7224C37.7394 23.6955 37.7394 23.682 37.6818 23.6552C37.6385 23.6349 37.6097 23.5085 37.6097 23.3382V23.0548H35.7077H33.8057V23.3429C33.8057 23.5014 33.7798 23.6311 33.7481 23.6311C33.7164 23.6311 33.6904 23.7349 33.6904 23.8617C33.6904 23.9885 33.6645 24.0922 33.6328 24.0922C33.6011 24.0922 33.5752 24.1441 33.5752 24.2075C33.5752 24.2709 33.5492 24.3228 33.5175 24.3228C33.4858 24.3228 33.4599 24.3746 33.4599 24.438C33.4599 24.5014 33.4339 24.5533 33.4022 24.5533C33.3705 24.5533 33.3446 24.5929 33.3446 24.6413C33.3446 24.7557 32.8553 25.245 32.7409 25.245C32.6926 25.245 32.653 25.2709 32.653 25.3026C32.653 25.3343 32.6011 25.3602 32.5377 25.3602C32.4743 25.3602 32.4224 25.3862 32.4224 25.4179C32.4224 25.4496 32.3705 25.4755 32.3071 25.4755C32.2437 25.4755 32.1919 25.5014 32.1919 25.5331C32.1919 25.5648 32.0881 25.5908 31.9613 25.5908C31.8345 25.5908 31.7308 25.6167 31.7308 25.6484C31.7308 25.6805 31.5771 25.7061 31.385 25.7061C31.1929 25.7061 31.0391 25.7316 31.0391 25.7637C31.0391 25.7979 30.8278 25.8213 30.5204 25.8213C30.213 25.8213 30.0017 25.8448 30.0017 25.879C30.0017 25.9156 29.5598 25.9366 28.7913 25.9366C28.0228 25.9366 27.5809 25.9156 27.5809 25.879C27.5809 25.8461 27.408 25.8213 27.1775 25.8213C26.9469 25.8213 26.774 25.7966 26.774 25.7637C26.774 25.732 26.6962 25.7061 26.6011 25.7061C26.506 25.7061 26.4282 25.6801 26.4282 25.6484C26.4282 25.6167 26.3504 25.5908 26.2553 25.5908C26.1602 25.5908 26.0824 25.5648 26.0824 25.5331C26.0824 25.5014 26.0362 25.4755 25.9798 25.4755C25.9234 25.4755 25.8399 25.4236 25.7942 25.3602C25.7485 25.2968 25.6774 25.245 25.6363 25.245C25.5314 25.245 24.8143 24.5168 24.8143 24.4103C24.8143 24.3621 24.7884 24.3228 24.7567 24.3228C24.725 24.3228 24.6991 24.2709 24.6991 24.2075C24.6991 24.1441 24.6731 24.0922 24.6414 24.0922C24.6097 24.0922 24.5838 24.0403 24.5838 23.9769C24.5838 23.9135 24.5579 23.8617 24.5262 23.8617C24.4945 23.8617 24.4685 23.7839 24.4685 23.6888C24.4685 23.5937 24.4426 23.5159 24.4109 23.5159C24.3788 23.5159 24.3533 23.3621 24.3533 23.17C24.3533 22.9779 24.3277 22.8242 24.2956 22.8242C24.2639 22.8242 24.238 22.6945 24.238 22.536C24.238 22.3775 24.2639 22.2478 24.2956 22.2478C24.3285 22.2478 24.3533 22.0749 24.3533 21.8444C24.3533 21.6138 24.378 21.4409 24.4109 21.4409C24.4426 21.4409 24.4685 21.389 24.4685 21.3256C24.4685 21.211 24.507 21.2104 31.1544 21.2104H37.8403V18.9049C37.8403 17.4063 37.8201 16.5994 37.7826 16.5994C37.7497 16.5994 37.725 16.4265 37.725 16.196C37.725 15.9654 37.7003 15.7925 37.6674 15.7925C37.6357 15.7925 37.6097 15.6888 37.6097 15.562C37.6097 15.4352 37.5838 15.3314 37.5521 15.3314C37.5204 15.3314 37.4945 15.2536 37.4945 15.1585C37.4945 15.0634 37.4685 14.9856 37.4368 14.9856C37.4051 14.9856 37.3792 14.9337 37.3792 14.8703C37.3792 14.8069 37.3533 14.755 37.3216 14.755C37.2899 14.755 37.2639 14.7032 37.2639 14.6398C37.2639 14.5764 37.238 14.5245 37.2063 14.5245C37.1746 14.5245 37.1486 14.4524 37.1486 14.3643C37.1486 14.2703 37.101 14.1699 37.0334 14.121C36.97 14.0753 36.9181 13.9975 36.9181 13.9481C36.9181 13.8987 36.8662 13.8209 36.8028 13.7752C36.7394 13.7295 36.6875 13.6587 36.6875 13.6177C36.6875 13.5768 36.4155 13.2713 36.083 12.9388C35.7505 12.6063 35.445 12.3343 35.4041 12.3343C35.3632 12.3343 35.2923 12.2824 35.2466 12.219C35.2009 12.1556 35.1231 12.1037 35.0737 12.1037C35.0243 12.1037 34.9465 12.0519 34.9008 11.9885C34.8551 11.9251 34.7716 11.8732 34.7152 11.8732C34.6588 11.8732 34.6126 11.8473 34.6126 11.8156C34.6126 11.7839 34.5607 11.7579 34.4973 11.7579C34.4339 11.7579 34.3821 11.732 34.3821 11.7003C34.3821 11.6686 34.3302 11.6427 34.2668 11.6427C34.2034 11.6427 34.1515 11.6167 34.1515 11.585C34.1515 11.5533 34.0997 11.5274 34.0363 11.5274C33.9729 11.5274 33.921 11.5014 33.921 11.4697C33.921 11.438 33.8432 11.4121 33.7481 11.4121C33.653 11.4121 33.5752 11.3862 33.5752 11.3545C33.5752 11.3228 33.5233 11.2968 33.4599 11.2968C33.3965 11.2968 33.3446 11.2709 33.3446 11.2392C33.3446 11.2075 33.2668 11.1816 33.1717 11.1816C33.0766 11.1816 32.9988 11.1556 32.9988 11.1239C32.9988 11.0922 32.921 11.0663 32.8259 11.0663C32.7308 11.0663 32.653 11.0403 32.653 11.0086C32.653 10.9769 32.5492 10.951 32.4224 10.951C32.2956 10.951 32.1919 10.9251 32.1919 10.8934C32.1919 10.8617 32.0881 10.8357 31.9613 10.8357C31.8345 10.8357 31.7308 10.8098 31.7308 10.7781C31.7308 10.7464 31.6011 10.7205 31.4426 10.7205C31.2841 10.7205 31.1544 10.6945 31.1544 10.6628C31.1544 10.6299 30.9815 10.6052 30.7509 10.6052C30.5204 10.6052 30.3475 10.5805 30.3475 10.5476C30.3475 10.5111 29.9248 10.4899 29.1947 10.4899C28.4647 10.4899 28.042 10.5111 28.042 10.5476ZM48.3302 10.5476C48.3302 10.5812 48.1381 10.6052 47.8691 10.6052C47.6001 10.6052 47.408 10.6292 47.408 10.6628C47.408 10.6949 47.2543 10.7205 47.0622 10.7205C46.8701 10.7205 46.7164 10.7461 46.7164 10.7781C46.7164 10.8098 46.6126 10.8357 46.4858 10.8357C46.359 10.8357 46.2553 10.8617 46.2553 10.8934C46.2553 10.9251 46.1515 10.951 46.0247 10.951C45.8979 10.951 45.7942 10.9769 45.7942 11.0086C45.7942 11.0403 45.7164 11.0663 45.6213 11.0663C45.5262 11.0663 45.4484 11.0922 45.4484 11.1239C45.4484 11.1556 45.3705 11.1816 45.2754 11.1816C45.1803 11.1816 45.1025 11.2075 45.1025 11.2392C45.1025 11.2709 45.0247 11.2968 44.9296 11.2968C44.8345 11.2968 44.7567 11.3228 44.7567 11.3545C44.7567 11.3862 44.7048 11.4121 44.6414 11.4121C44.578 11.4121 44.5262 11.438 44.5262 11.4697C44.5262 11.5014 44.4743 11.5274 44.4109 11.5274C44.3475 11.5274 44.2956 11.5533 44.2956 11.585C44.2956 11.6167 44.2437 11.6427 44.1803 11.6427C44.1169 11.6427 44.0651 11.6686 44.0651 11.7003C44.0651 11.732 44.0132 11.7579 43.9498 11.7579C43.8864 11.7579 43.8345 11.7839 43.8345 11.8156C43.8345 11.8473 43.7883 11.8732 43.732 11.8732C43.6756 11.8732 43.592 11.9251 43.5463 11.9885C43.5006 12.0519 43.4228 12.1037 43.3734 12.1037C43.324 12.1037 43.2462 12.1556 43.2005 12.219C43.1548 12.2824 43.0839 12.3343 43.0428 12.3343C42.9517 12.3343 42.1054 13.1712 42.1054 13.2613C42.1054 13.2966 42.0276 13.3982 41.9325 13.487C41.8374 13.5759 41.7596 13.69 41.7596 13.7407C41.7596 13.7914 41.7337 13.8329 41.702 13.8329C41.6703 13.8329 41.6443 13.879 41.6443 13.9354C41.6443 13.9918 41.5924 14.0753 41.529 14.121C41.4614 14.1699 41.4138 14.2703 41.4138 14.3643C41.4138 14.4524 41.3878 14.5245 41.3561 14.5245C41.3244 14.5245 41.2985 14.5764 41.2985 14.6398C41.2985 14.7032 41.2726 14.755 41.2409 14.755C41.2092 14.755 41.1832 14.8329 41.1832 14.928C41.1832 15.0231 41.1573 15.1009 41.1256 15.1009C41.0939 15.1009 41.068 15.1787 41.068 15.2738C41.068 15.3689 41.042 15.4467 41.0103 15.4467C40.9786 15.4467 40.9527 15.5504 40.9527 15.6772C40.9527 15.804 40.9267 15.9078 40.895 15.9078C40.8621 15.9078 40.8374 16.0807 40.8374 16.3112C40.8374 16.5418 40.8127 16.7147 40.7798 16.7147C40.7422 16.7147 40.7221 17.6369 40.7221 19.366C40.7221 21.0951 40.7422 22.0173 40.7798 22.0173C40.8134 22.0173 40.8374 22.2094 40.8374 22.4784C40.8374 22.7474 40.8614 22.9395 40.895 22.9395C40.9267 22.9395 40.9527 23.0692 40.9527 23.2277C40.9527 23.3862 40.9786 23.5159 41.0103 23.5159C41.042 23.5159 41.068 23.5937 41.068 23.6888C41.068 23.7839 41.0939 23.8617 41.1256 23.8617C41.1573 23.8617 41.1832 23.9135 41.1832 23.9769C41.1832 24.0403 41.2092 24.0922 41.2409 24.0922C41.2726 24.0922 41.2985 24.17 41.2985 24.2651C41.2985 24.3602 41.3244 24.438 41.3561 24.438C41.3878 24.438 41.4138 24.4842 41.4138 24.5406C41.4138 24.597 41.4656 24.6805 41.529 24.7262C41.5924 24.7719 41.6443 24.8497 41.6443 24.8991C41.6443 24.9485 41.6962 25.0263 41.7596 25.072C41.823 25.1178 41.8749 25.1888 41.8749 25.2299C41.8749 25.3212 42.5963 26.0519 42.6864 26.0519C42.7218 26.0519 42.8235 26.1297 42.9123 26.2248C43.0011 26.3199 43.1153 26.3977 43.166 26.3977C43.2167 26.3977 43.2582 26.4236 43.2582 26.4553C43.2582 26.487 43.3043 26.513 43.3607 26.513C43.4171 26.513 43.5006 26.5648 43.5463 26.6282C43.5952 26.6959 43.6956 26.7435 43.7896 26.7435C43.8777 26.7435 43.9498 26.7695 43.9498 26.8012C43.9498 26.8329 44.0017 26.8588 44.0651 26.8588C44.1285 26.8588 44.1803 26.8847 44.1803 26.9164C44.1803 26.9481 44.2582 26.9741 44.3533 26.9741C44.4484 26.9741 44.5262 27 44.5262 27.0317C44.5262 27.0634 44.604 27.0893 44.6991 27.0893C44.7942 27.0893 44.872 27.1153 44.872 27.147C44.872 27.1787 44.9757 27.2046 45.1025 27.2046C45.2293 27.2046 45.3331 27.2305 45.3331 27.2622C45.3331 27.2939 45.4368 27.3199 45.5636 27.3199C45.6904 27.3199 45.7942 27.3458 45.7942 27.3775C45.7942 27.4104 45.9671 27.4352 46.1976 27.4352C46.4282 27.4352 46.6011 27.4599 46.6011 27.4928C46.6011 27.5277 46.8493 27.5504 47.2303 27.5504C47.6773 27.5504 47.8692 27.5713 47.8931 27.6225C47.92 27.6801 47.9335 27.6801 47.9603 27.6225C47.9852 27.5693 48.2338 27.5504 48.9114 27.5504C49.4846 27.5504 49.8288 27.5288 49.8288 27.4928C49.8288 27.4608 49.9825 27.4352 50.1746 27.4352C50.3667 27.4352 50.5204 27.4096 50.5204 27.3775C50.5204 27.3458 50.6241 27.3199 50.7509 27.3199C50.8778 27.3199 50.9815 27.2939 50.9815 27.2622C50.9815 27.2305 51.0852 27.2046 51.212 27.2046C51.3388 27.2046 51.4426 27.1787 51.4426 27.147C51.4426 27.1153 51.5204 27.0893 51.6155 27.0893C51.7106 27.0893 51.7884 27.0634 51.7884 27.0317C51.7884 27 51.8662 26.9741 51.9613 26.9741C52.0564 26.9741 52.1342 26.9481 52.1342 26.9164C52.1342 26.8847 52.212 26.8588 52.3071 26.8588C52.4022 26.8588 52.4801 26.8329 52.4801 26.8012C52.4801 26.7695 52.5579 26.7435 52.653 26.7435C52.7481 26.7435 52.8259 26.7176 52.8259 26.6859C52.8259 26.6542 52.8778 26.6282 52.9412 26.6282C53.0046 26.6282 53.0564 26.6023 53.0564 26.5706C53.0564 26.5389 53.1083 26.513 53.1717 26.513C53.2351 26.513 53.287 26.487 53.287 26.4553C53.287 26.4236 53.3388 26.3977 53.4022 26.3977C53.4656 26.3977 53.5175 26.3718 53.5175 26.3401C53.5175 26.3084 53.5694 26.2824 53.6328 26.2824C53.6962 26.2824 53.7481 26.2565 53.7481 26.2248C53.7481 26.1931 53.8259 26.1671 53.921 26.1671H54.0939V26.9164C54.0939 27.3775 54.0717 27.6657 54.0363 27.6657C54.0033 27.6657 53.9786 27.8386 53.9786 28.0692C53.9786 28.2997 53.9539 28.4726 53.921 28.4726C53.8893 28.4726 53.8633 28.5764 53.8633 28.7032C53.8633 28.83 53.8374 28.9337 53.8057 28.9337C53.774 28.9337 53.7481 28.9856 53.7481 29.049C53.7481 29.1124 53.7221 29.1643 53.6904 29.1643C53.6587 29.1643 53.6328 29.2161 53.6328 29.2795C53.6328 29.3429 53.6069 29.3948 53.5752 29.3948C53.5435 29.3948 53.5175 29.4344 53.5175 29.4828C53.5175 29.5972 53.0282 30.0865 52.9138 30.0865C52.8655 30.0865 52.8259 30.1124 52.8259 30.1441C52.8259 30.1758 52.774 30.2017 52.7106 30.2017C52.6472 30.2017 52.5953 30.2277 52.5953 30.2594C52.5953 30.2911 52.5435 30.317 52.4801 30.317C52.4167 30.317 52.3648 30.3429 52.3648 30.3746C52.3648 30.4063 52.287 30.4323 52.1919 30.4323C52.0968 30.4323 52.019 30.4582 52.019 30.4899C52.019 30.5216 51.9412 30.5476 51.8461 30.5476C51.7509 30.5476 51.6731 30.5735 51.6731 30.6052C51.6731 30.6372 51.5194 30.6628 51.3273 30.6628C51.1352 30.6628 50.9815 30.6884 50.9815 30.7205C50.9815 30.7575 50.4051 30.7781 49.3677 30.7781C48.3302 30.7781 47.7538 30.7575 47.7538 30.7205C47.7538 30.6869 47.5617 30.6628 47.2927 30.6628C47.0237 30.6628 46.8316 30.6388 46.8316 30.6052C46.8316 30.5735 46.7279 30.5476 46.6011 30.5476C46.4743 30.5476 46.3705 30.5216 46.3705 30.4899C46.3705 30.4582 46.2927 30.4323 46.1976 30.4323C46.1025 30.4323 46.0247 30.4063 46.0247 30.3746C46.0247 30.3429 45.9786 30.317 45.9222 30.317C45.8658 30.317 45.7822 30.2651 45.7365 30.2017C45.6908 30.1383 45.6194 30.0865 45.5778 30.0865C45.4795 30.0865 45.1025 29.7095 45.1025 29.6112C45.1025 29.5696 45.0507 29.4982 44.9873 29.4525C44.9239 29.4067 44.872 29.3084 44.872 29.2339C44.872 28.9375 44.8471 28.9337 42.8876 28.9337H41.068V29.6254C41.068 30.048 41.0904 30.317 41.1256 30.317C41.1573 30.317 41.1832 30.4207 41.1832 30.5476C41.1832 30.6744 41.2092 30.7781 41.2409 30.7781C41.2726 30.7781 41.2985 30.83 41.2985 30.8934C41.2985 30.9568 41.3244 31.0086 41.3561 31.0086C41.3878 31.0086 41.4138 31.0605 41.4138 31.1239C41.4138 31.1873 41.4397 31.2392 41.4714 31.2392C41.5031 31.2392 41.529 31.2911 41.529 31.3545C41.529 31.4179 41.555 31.4697 41.5867 31.4697C41.6184 31.4697 41.6443 31.5107 41.6443 31.5607C41.6443 31.6108 41.7481 31.7514 41.8749 31.8732C42.0017 31.995 42.1054 32.1246 42.1054 32.161C42.1054 32.2466 42.2508 32.3919 42.3364 32.3919C42.3728 32.3919 42.5023 32.4957 42.6241 32.6225C42.746 32.7493 42.8866 32.853 42.9367 32.853C42.9867 32.853 43.0276 32.879 43.0276 32.9107C43.0276 32.9424 43.0738 32.9683 43.1301 32.9683C43.1866 32.9683 43.2701 33.0202 43.3158 33.0836C43.3646 33.1512 43.465 33.1988 43.5591 33.1988C43.6471 33.1988 43.7192 33.2248 43.7192 33.2565C43.7192 33.2882 43.7711 33.3141 43.8345 33.3141C43.8979 33.3141 43.9498 33.3401 43.9498 33.3718C43.9498 33.4035 44.0017 33.4294 44.0651 33.4294C44.1285 33.4294 44.1803 33.4553 44.1803 33.487C44.1803 33.5187 44.2582 33.5447 44.3533 33.5447C44.4484 33.5447 44.5262 33.5706 44.5262 33.6023C44.5262 33.634 44.6299 33.6599 44.7567 33.6599C44.8835 33.6599 44.9873 33.6859 44.9873 33.7176C44.9873 33.7493 45.0651 33.7752 45.1602 33.7752C45.2553 33.7752 45.3331 33.8012 45.3331 33.8329C45.3331 33.8646 45.4368 33.8905 45.5636 33.8905C45.6904 33.8905 45.7942 33.9164 45.7942 33.9481C45.7942 33.9798 45.8979 34.0058 46.0247 34.0058C46.1515 34.0058 46.2553 34.0317 46.2553 34.0634C46.2553 34.0954 46.409 34.121 46.6011 34.121C46.7932 34.121 46.9469 34.1466 46.9469 34.1787C46.9469 34.2129 47.1583 34.2363 47.4656 34.2363C47.773 34.2363 47.9844 34.2598 47.9844 34.2939C47.9844 34.3306 48.4455 34.3516 49.2524 34.3516C50.0593 34.3516 50.5204 34.3306 50.5204 34.2939C50.5204 34.2603 50.7125 34.2363 50.9815 34.2363C51.2505 34.2363 51.4426 34.2123 51.4426 34.1787C51.4426 34.1466 51.5963 34.121 51.7884 34.121C51.9805 34.121 52.1342 34.0954 52.1342 34.0634C52.1342 34.0317 52.2639 34.0058 52.4224 34.0058C52.5809 34.0058 52.7106 33.9798 52.7106 33.9481C52.7106 33.9164 52.8144 33.8905 52.9412 33.8905C53.068 33.8905 53.1717 33.8646 53.1717 33.8329C53.1717 33.8012 53.2754 33.7752 53.4022 33.7752C53.529 33.7752 53.6328 33.7493 53.6328 33.7176C53.6328 33.6859 53.7106 33.6599 53.8057 33.6599C53.9008 33.6599 53.9786 33.634 53.9786 33.6023C53.9786 33.5706 54.0305 33.5447 54.0939 33.5447C54.1573 33.5447 54.2092 33.5187 54.2092 33.487C54.2092 33.4553 54.287 33.4294 54.3821 33.4294C54.4772 33.4294 54.555 33.4035 54.555 33.3718C54.555 33.3401 54.6069 33.3141 54.6703 33.3141C54.7337 33.3141 54.7855 33.2882 54.7855 33.2565C54.7855 33.2248 54.8374 33.1988 54.9008 33.1988C54.9642 33.1988 55.0161 33.1729 55.0161 33.1412C55.0161 33.1095 55.068 33.0836 55.1314 33.0836C55.1948 33.0836 55.2466 33.0576 55.2466 33.0259C55.2466 32.9942 55.2928 32.9683 55.3492 32.9683C55.4056 32.9683 55.4891 32.9164 55.5348 32.853C55.5805 32.7896 55.6514 32.7378 55.6923 32.7378C55.7971 32.7378 56.9757 31.5474 56.9757 31.4416C56.9757 31.3937 57.0017 31.3545 57.0334 31.3545C57.0651 31.3545 57.091 31.3083 57.091 31.2519C57.091 31.1955 57.1429 31.112 57.2063 31.0663C57.2697 31.0206 57.3216 30.9371 57.3216 30.8806C57.3216 30.8243 57.3475 30.7781 57.3792 30.7781C57.4109 30.7781 57.4368 30.7003 57.4368 30.6052C57.4368 30.5101 57.4628 30.4323 57.4945 30.4323C57.5262 30.4323 57.5521 30.3804 57.5521 30.317C57.5521 30.2536 57.578 30.2017 57.6097 30.2017C57.6414 30.2017 57.6674 30.098 57.6674 29.9712C57.6674 29.8444 57.6933 29.7406 57.725 29.7406C57.7567 29.7406 57.7826 29.6369 57.7826 29.5101C57.7826 29.3833 57.8086 29.2795 57.8403 29.2795C57.8732 29.2795 57.8979 29.1066 57.8979 28.8761C57.8979 28.6455 57.9226 28.4726 57.9556 28.4726C57.9936 28.4726 58.0132 26.4553 58.0132 22.536C58.0132 18.6167 57.9936 16.5994 57.9556 16.5994C57.9226 16.5994 57.8979 16.4265 57.8979 16.196C57.8979 15.9654 57.8732 15.7925 57.8403 15.7925C57.8086 15.7925 57.7826 15.6888 57.7826 15.562C57.7826 15.4352 57.7567 15.3314 57.725 15.3314C57.6933 15.3314 57.6674 15.2536 57.6674 15.1585C57.6674 15.0634 57.6414 14.9856 57.6097 14.9856C57.578 14.9856 57.5521 14.9078 57.5521 14.8127C57.5521 14.7176 57.5262 14.6398 57.4945 14.6398C57.4628 14.6398 57.4368 14.5879 57.4368 14.5245C57.4368 14.4611 57.4109 14.4092 57.3792 14.4092C57.3475 14.4092 57.3216 14.3573 57.3216 14.2939C57.3216 14.2305 57.2956 14.1787 57.2639 14.1787C57.2322 14.1787 57.2063 14.1268 57.2063 14.0634C57.2063 14 57.1803 13.9481 57.1486 13.9481C57.1169 13.9481 57.091 13.902 57.091 13.8456C57.091 13.7892 57.0391 13.7056 56.9757 13.6599C56.9123 13.6142 56.8605 13.5434 56.8605 13.5025C56.8605 13.4054 55.6741 12.219 55.577 12.219C55.5361 12.219 55.4652 12.1671 55.4195 12.1037C55.3738 12.0403 55.296 11.9885 55.2466 11.9885C55.1972 11.9885 55.1194 11.9366 55.0737 11.8732C55.028 11.8098 54.9445 11.7579 54.8881 11.7579C54.8317 11.7579 54.7855 11.732 54.7855 11.7003C54.7855 11.6686 54.7337 11.6427 54.6703 11.6427C54.6069 11.6427 54.555 11.6167 54.555 11.585C54.555 11.5533 54.5031 11.5274 54.4397 11.5274C54.3763 11.5274 54.3244 11.5014 54.3244 11.4697C54.3244 11.438 54.2466 11.4121 54.1515 11.4121C54.0564 11.4121 53.9786 11.3862 53.9786 11.3545C53.9786 11.3228 53.9267 11.2968 53.8633 11.2968C53.7999 11.2968 53.7481 11.2709 53.7481 11.2392C53.7481 11.2075 53.6703 11.1816 53.5752 11.1816C53.4801 11.1816 53.4022 11.1556 53.4022 11.1239C53.4022 11.0922 53.2985 11.0663 53.1717 11.0663C53.0449 11.0663 52.9412 11.0403 52.9412 11.0086C52.9412 10.9769 52.8633 10.951 52.7682 10.951C52.6731 10.951 52.5953 10.9251 52.5953 10.8934C52.5953 10.8617 52.4656 10.8357 52.3071 10.8357C52.1486 10.8357 52.019 10.8098 52.019 10.7781C52.019 10.7464 51.9152 10.7205 51.7884 10.7205C51.6616 10.7205 51.5579 10.6945 51.5579 10.6628C51.5579 10.6292 51.3658 10.6052 51.0968 10.6052C50.8278 10.6052 50.6357 10.5812 50.6357 10.5476C50.6357 10.5111 50.213 10.4899 49.4829 10.4899C48.7529 10.4899 48.3302 10.5111 48.3302 10.5476ZM88.4455 10.5476C88.4455 10.5817 88.2341 10.6052 87.9267 10.6052C87.6194 10.6052 87.408 10.6286 87.408 10.6628C87.408 10.6945 87.2783 10.7205 87.1198 10.7205C86.9613 10.7205 86.8316 10.7464 86.8316 10.7781C86.8316 10.8098 86.7279 10.8357 86.6011 10.8357C86.4743 10.8357 86.3705 10.8617 86.3705 10.8934C86.3705 10.9251 86.2668 10.951 86.14 10.951C86.0132 10.951 85.9095 10.9769 85.9095 11.0086C85.9095 11.0403 85.8316 11.0663 85.7365 11.0663C85.6414 11.0663 85.5636 11.0922 85.5636 11.1239C85.5636 11.1556 85.4858 11.1816 85.3907 11.1816C85.2956 11.1816 85.2178 11.2075 85.2178 11.2392C85.2178 11.2709 85.1659 11.2968 85.1025 11.2968C85.0391 11.2968 84.9873 11.3228 84.9873 11.3545C84.9873 11.3862 84.9354 11.4121 84.872 11.4121C84.8086 11.4121 84.7567 11.438 84.7567 11.4697C84.7567 11.5014 84.7048 11.5274 84.6414 11.5274C84.578 11.5274 84.5262 11.5533 84.5262 11.585C84.5262 11.6167 84.48 11.6427 84.4236 11.6427C84.3672 11.6427 84.2837 11.6945 84.238 11.7579C84.1923 11.8213 84.1145 11.8732 84.0651 11.8732C84.0157 11.8732 83.9379 11.9251 83.8922 11.9885C83.8465 12.0519 83.7755 12.1037 83.7345 12.1037C83.6436 12.1037 82.6818 13.0561 82.6818 13.1461C82.6818 13.1814 82.604 13.2829 82.5089 13.3718C82.4138 13.4606 82.336 13.5691 82.336 13.6127C82.336 13.6564 82.2841 13.7295 82.2207 13.7752C82.1573 13.8209 82.1054 13.9044 82.1054 13.9609C82.1054 14.0172 82.0795 14.0634 82.0478 14.0634C82.0161 14.0634 81.9901 14.1153 81.9901 14.1787C81.9901 14.2421 81.9642 14.2939 81.9325 14.2939C81.9008 14.2939 81.8749 14.3718 81.8749 14.4669C81.8749 14.562 81.8489 14.6398 81.8172 14.6398C81.7855 14.6398 81.7596 14.6916 81.7596 14.755C81.7596 14.8184 81.7337 14.8703 81.702 14.8703C81.6703 14.8703 81.6443 14.9481 81.6443 15.0432C81.6443 15.1383 81.6184 15.2161 81.5867 15.2161C81.555 15.2161 81.529 15.3199 81.529 15.4467C81.529 15.5735 81.5031 15.6772 81.4714 15.6772C81.4397 15.6772 81.4138 15.8069 81.4138 15.9654C81.4138 16.1239 81.3878 16.2536 81.3561 16.2536C81.3232 16.2536 81.2985 16.4265 81.2985 16.6571C81.2985 16.8876 81.2738 17.0605 81.2409 17.0605C81.2028 17.0605 81.1832 19.097 81.1832 23.0548V29.049H83.1429H85.1025V23.3429C85.1025 19.5774 85.1221 17.6369 85.1602 17.6369C85.1938 17.6369 85.2178 17.4448 85.2178 17.1758C85.2178 16.9068 85.2418 16.7147 85.2754 16.7147C85.3071 16.7147 85.3331 16.6369 85.3331 16.5418C85.3331 16.4467 85.359 16.3689 85.3907 16.3689C85.4224 16.3689 85.4484 16.2911 85.4484 16.196C85.4484 16.1009 85.4743 16.0231 85.506 16.0231C85.5377 16.0231 85.5636 15.9712 85.5636 15.9078C85.5636 15.8444 85.5896 15.7925 85.6213 15.7925C85.653 15.7925 85.6789 15.7463 85.6789 15.69C85.6789 15.6335 85.7308 15.55 85.7942 15.5043C85.8576 15.4586 85.9095 15.3874 85.9095 15.346C85.9095 15.2481 86.4025 14.755 86.5004 14.755C86.5418 14.755 86.613 14.7032 86.6587 14.6398C86.7044 14.5764 86.7879 14.5245 86.8444 14.5245C86.9007 14.5245 86.9469 14.4986 86.9469 14.4669C86.9469 14.4352 86.9988 14.4092 87.0622 14.4092C87.1256 14.4092 87.1775 14.3833 87.1775 14.3516C87.1775 14.3199 87.2553 14.2939 87.3504 14.2939C87.4455 14.2939 87.5233 14.268 87.5233 14.2363C87.5233 14.2046 87.627 14.1787 87.7538 14.1787C87.8806 14.1787 87.9844 14.1527 87.9844 14.121C87.9844 14.0874 88.1765 14.0634 88.4455 14.0634C88.7145 14.0634 88.9066 14.0394 88.9066 14.0058C88.9066 13.9705 89.1756 13.9481 89.5982 13.9481C90.0209 13.9481 90.2899 13.9705 90.2899 14.0058C90.2899 14.0394 90.482 14.0634 90.751 14.0634C91.02 14.0634 91.2121 14.0874 91.2121 14.121C91.2121 14.1527 91.3158 14.1787 91.4426 14.1787C91.5694 14.1787 91.6731 14.2046 91.6731 14.2363C91.6731 14.268 91.751 14.2939 91.8461 14.2939C91.9412 14.2939 92.019 14.3199 92.019 14.3516C92.019 14.3833 92.0708 14.4092 92.1342 14.4092C92.1976 14.4092 92.2495 14.4352 92.2495 14.4669C92.2495 14.4986 92.3014 14.5245 92.3648 14.5245C92.4282 14.5245 92.4801 14.5504 92.4801 14.5821C92.4801 14.6138 92.5194 14.6398 92.5675 14.6398C92.6737 14.6398 93.5175 15.4723 93.5175 15.5771C93.5175 15.6182 93.5694 15.6892 93.6328 15.7349C93.6962 15.7806 93.7481 15.8641 93.7481 15.9205C93.7481 15.9769 93.774 16.0231 93.8057 16.0231C93.8374 16.0231 93.8633 16.1009 93.8633 16.196C93.8633 16.2911 93.8893 16.3689 93.921 16.3689C93.9527 16.3689 93.9786 16.4726 93.9786 16.5994C93.9786 16.7262 94.0046 16.83 94.0363 16.83C94.0699 16.83 94.0939 17.0221 94.0939 17.2911C94.0939 17.5601 94.1179 17.7522 94.1515 17.7522C94.1896 17.7522 94.2092 19.6734 94.2092 23.4006V29.049H96.0865C97.6367 29.049 97.9782 29.0346 98.0461 28.9666C98.1165 28.8963 98.1285 27.9808 98.1285 22.6842C98.1285 18.5893 98.1089 16.4841 98.0708 16.4841C98.0379 16.4841 98.0132 16.3112 98.0132 16.0807C98.0132 15.8501 97.9885 15.6772 97.9556 15.6772C97.9239 15.6772 97.8979 15.5735 97.8979 15.4467C97.8979 15.3199 97.872 15.2161 97.8403 15.2161C97.8086 15.2161 97.7827 15.1383 97.7827 15.0432C97.7827 14.9481 97.7567 14.8703 97.725 14.8703C97.6933 14.8703 97.6674 14.8184 97.6674 14.755C97.6674 14.6916 97.6414 14.6398 97.6097 14.6398C97.578 14.6398 97.5521 14.5879 97.5521 14.5245C97.5521 14.4611 97.5262 14.4092 97.4945 14.4092C97.4628 14.4092 97.4368 14.3573 97.4368 14.2939C97.4368 14.2305 97.4109 14.1787 97.3792 14.1787C97.3475 14.1787 97.3216 14.1268 97.3216 14.0634C97.3216 14 97.2956 13.9481 97.2639 13.9481C97.2322 13.9481 97.2063 13.902 97.2063 13.8456C97.2063 13.7892 97.1544 13.7056 97.091 13.6599C97.0276 13.6142 96.9757 13.5433 96.9757 13.5024C96.9757 13.4116 95.908 12.3343 95.818 12.3343C95.7828 12.3343 95.6813 12.2565 95.5925 12.1614C95.5036 12.0663 95.3895 11.9885 95.3388 11.9885C95.2881 11.9885 95.2466 11.9625 95.2466 11.9308C95.2466 11.8991 95.2005 11.8732 95.1441 11.8732C95.0877 11.8732 95.0042 11.8213 94.9585 11.7579C94.9127 11.6945 94.8292 11.6427 94.7728 11.6427C94.7164 11.6427 94.6703 11.6167 94.6703 11.585C94.6703 11.5533 94.6184 11.5274 94.555 11.5274C94.4916 11.5274 94.4397 11.5014 94.4397 11.4697C94.4397 11.438 94.3878 11.4121 94.3244 11.4121C94.261 11.4121 94.2092 11.3862 94.2092 11.3545C94.2092 11.3228 94.1314 11.2968 94.0363 11.2968C93.9412 11.2968 93.8633 11.2709 93.8633 11.2392C93.8633 11.2075 93.8115 11.1816 93.7481 11.1816C93.6847 11.1816 93.6328 11.1556 93.6328 11.1239C93.6328 11.0922 93.555 11.0663 93.4599 11.0663C93.3648 11.0663 93.287 11.0403 93.287 11.0086C93.287 10.9769 93.2092 10.951 93.1141 10.951C93.019 10.951 92.9412 10.9251 92.9412 10.8934C92.9412 10.8617 92.8374 10.8357 92.7106 10.8357C92.5838 10.8357 92.4801 10.8098 92.4801 10.7781C92.4801 10.7464 92.3504 10.7205 92.1919 10.7205C92.0334 10.7205 91.9037 10.6945 91.9037 10.6628C91.9037 10.6299 91.7308 10.6052 91.5002 10.6052C91.2697 10.6052 91.0968 10.5805 91.0968 10.5476C91.0968 10.5108 90.6165 10.4899 89.7711 10.4899C88.9258 10.4899 88.4455 10.5108 88.4455 10.5476ZM61.1256 16.5994C61.1256 20.4035 61.1452 22.3631 61.1832 22.3631C61.2191 22.3631 61.2409 22.6897 61.2409 23.2277C61.2409 23.7656 61.2626 24.0922 61.2985 24.0922C61.3302 24.0922 61.3561 24.2219 61.3561 24.3804C61.3561 24.5389 61.3821 24.6686 61.4138 24.6686C61.4455 24.6686 61.4714 24.7464 61.4714 24.8415C61.4714 24.9366 61.4973 25.0144 61.529 25.0144C61.5607 25.0144 61.5867 25.0922 61.5867 25.1873C61.5867 25.2824 61.6126 25.3602 61.6443 25.3602C61.676 25.3602 61.702 25.4121 61.702 25.4755C61.702 25.5389 61.7279 25.5908 61.7596 25.5908C61.7913 25.5908 61.8172 25.6427 61.8172 25.7061C61.8172 25.7695 61.8432 25.8213 61.8749 25.8213C61.9066 25.8213 61.9325 25.8675 61.9325 25.9239C61.9325 25.9803 61.9844 26.0638 62.0478 26.1095C62.1112 26.1552 62.1631 26.2261 62.1631 26.267C62.1631 26.3576 63.3462 27.5504 63.4361 27.5504C63.4713 27.5504 63.5728 27.6282 63.6616 27.7233C63.7504 27.8184 63.8646 27.8963 63.9153 27.8963C63.966 27.8963 64.0074 27.9222 64.0074 27.9539C64.0074 27.9856 64.0536 28.0115 64.11 28.0115C64.1664 28.0115 64.2499 28.0634 64.2956 28.1268C64.3413 28.1902 64.4248 28.2421 64.4813 28.2421C64.5376 28.2421 64.5838 28.268 64.5838 28.2997C64.5838 28.3314 64.6357 28.3573 64.6991 28.3573C64.7625 28.3573 64.8144 28.3833 64.8144 28.415C64.8144 28.4467 64.8922 28.4726 64.9873 28.4726C65.0824 28.4726 65.1602 28.4986 65.1602 28.5303C65.1602 28.562 65.212 28.5879 65.2754 28.5879C65.3388 28.5879 65.3907 28.6138 65.3907 28.6455C65.3907 28.6772 65.4685 28.7032 65.5636 28.7032C65.6587 28.7032 65.7365 28.7291 65.7365 28.7608C65.7365 28.7925 65.8144 28.8184 65.9095 28.8184C66.0046 28.8184 66.0824 28.8444 66.0824 28.8761C66.0824 28.9078 66.1602 28.9337 66.2553 28.9337C66.3504 28.9337 66.4282 28.9597 66.4282 28.9914C66.4282 29.0231 66.5319 29.049 66.6587 29.049C66.7855 29.049 66.8893 29.0749 66.8893 29.1066C66.8893 29.1387 67.043 29.1643 67.2351 29.1643C67.4272 29.1643 67.5809 29.1899 67.5809 29.2219C67.5809 29.2548 67.7538 29.2795 67.9844 29.2795C68.2149 29.2795 68.3878 29.3043 68.3878 29.3372C68.3878 29.3737 68.8105 29.3948 69.5406 29.3948C70.2707 29.3948 70.6933 29.3737 70.6933 29.3372C70.6933 29.3043 70.8662 29.2795 71.0968 29.2795C71.3273 29.2795 71.5002 29.2548 71.5002 29.2219C71.5002 29.1899 71.6539 29.1643 71.8461 29.1643C72.0382 29.1643 72.1919 29.1387 72.1919 29.1066C72.1919 29.0749 72.2956 29.049 72.4224 29.049C72.5492 29.049 72.653 29.0231 72.653 28.9914C72.653 28.9597 72.7567 28.9337 72.8835 28.9337C73.0103 28.9337 73.1141 28.9078 73.1141 28.8761C73.1141 28.8444 73.1919 28.8184 73.287 28.8184C73.3821 28.8184 73.4599 28.7925 73.4599 28.7608C73.4599 28.7291 73.5377 28.7032 73.6328 28.7032C73.7279 28.7032 73.8057 28.6772 73.8057 28.6455C73.8057 28.6138 73.8576 28.5879 73.921 28.5879C73.9844 28.5879 74.0363 28.562 74.0363 28.5303C74.0363 28.4986 74.0881 28.4726 74.1515 28.4726C74.2149 28.4726 74.2668 28.4467 74.2668 28.415C74.2668 28.3833 74.3187 28.3573 74.3821 28.3573C74.4455 28.3573 74.4973 28.3314 74.4973 28.2997C74.4973 28.268 74.5492 28.2421 74.6126 28.2421C74.676 28.2421 74.7279 28.2161 74.7279 28.1844C74.7279 28.1527 74.7798 28.1268 74.8432 28.1268C74.9066 28.1268 74.9584 28.1009 74.9584 28.0692C74.9584 28.0375 75.0046 28.0115 75.061 28.0115C75.1174 28.0115 75.2009 27.9597 75.2466 27.8963C75.2923 27.8329 75.3632 27.781 75.4041 27.781C75.445 27.781 75.7505 27.5089 76.0831 27.1765C76.4155 26.844 76.6876 26.5384 76.6876 26.4975C76.6876 26.4566 76.7394 26.3858 76.8028 26.3401C76.8662 26.2944 76.9181 26.2165 76.9181 26.1671C76.9181 26.1178 76.97 26.0399 77.0334 25.9942C77.0968 25.9485 77.1486 25.865 77.1486 25.8086C77.1486 25.7522 77.1746 25.7061 77.2063 25.7061C77.238 25.7061 77.2639 25.6282 77.2639 25.5331C77.2639 25.438 77.2899 25.3602 77.3216 25.3602C77.3533 25.3602 77.3792 25.3084 77.3792 25.245C77.3792 25.1816 77.4051 25.1297 77.4368 25.1297C77.4685 25.1297 77.4945 25.0519 77.4945 24.9568C77.4945 24.8617 77.5204 24.7839 77.5521 24.7839C77.5838 24.7839 77.6097 24.7061 77.6097 24.611C77.6097 24.5159 77.6357 24.438 77.6674 24.438C77.6991 24.438 77.725 24.3084 77.725 24.1499C77.725 23.9914 77.751 23.8617 77.7827 23.8617C77.8156 23.8617 77.8403 23.6888 77.8403 23.4582C77.8403 23.2277 77.865 23.0548 77.8979 23.0548C77.936 23.0548 77.9556 20.9798 77.9556 16.9452V10.8357H75.9959H74.0363V14.2892C74.0363 16.9979 74.0207 17.7489 73.9642 17.7718C73.9098 17.7938 73.9133 17.8173 73.9786 17.8674C74.0439 17.9176 74.0474 17.941 73.993 17.9631C73.9369 17.9858 73.921 18.541 73.921 20.4659C73.921 22.0765 73.9009 22.9395 73.8633 22.9395C73.8316 22.9395 73.8057 23.0692 73.8057 23.2277C73.8057 23.3862 73.7798 23.5159 73.7481 23.5159C73.7164 23.5159 73.6904 23.5937 73.6904 23.6888C73.6904 23.7839 73.6645 23.8617 73.6328 23.8617C73.6011 23.8617 73.5752 23.9338 73.5752 24.0218C73.5752 24.1159 73.5275 24.2163 73.4599 24.2651C73.3965 24.3108 73.3446 24.382 73.3446 24.4232C73.3446 24.4644 73.2025 24.6403 73.0289 24.8139C72.8552 24.9876 72.6794 25.1297 72.6381 25.1297C72.5969 25.1297 72.5258 25.1816 72.4801 25.245C72.4312 25.3126 72.3308 25.3602 72.2368 25.3602C72.1487 25.3602 72.0766 25.3862 72.0766 25.4179C72.0766 25.4496 72.0247 25.4755 71.9613 25.4755C71.8979 25.4755 71.8461 25.5014 71.8461 25.5331C71.8461 25.5648 71.7682 25.5908 71.6731 25.5908C71.578 25.5908 71.5002 25.6167 71.5002 25.6484C71.5002 25.6801 71.3705 25.7061 71.212 25.7061C71.0535 25.7061 70.9239 25.732 70.9239 25.7637C70.9239 25.7966 70.751 25.8213 70.5204 25.8213C70.2899 25.8213 70.1169 25.8461 70.1169 25.879C70.1169 25.9139 69.8672 25.9366 69.4829 25.9366C69.0987 25.9366 68.8489 25.9139 68.8489 25.879C68.8489 25.8454 68.6568 25.8213 68.3878 25.8213C68.1188 25.8213 67.9267 25.7973 67.9267 25.7637C67.9267 25.732 67.823 25.7061 67.6962 25.7061C67.5694 25.7061 67.4656 25.6801 67.4656 25.6484C67.4656 25.6167 67.4138 25.5908 67.3504 25.5908C67.287 25.5908 67.2351 25.5648 67.2351 25.5331C67.2351 25.5014 67.1573 25.4755 67.0622 25.4755C66.9671 25.4755 66.8893 25.4496 66.8893 25.4179C66.8893 25.3862 66.8431 25.3602 66.7867 25.3602C66.7303 25.3602 66.6468 25.3084 66.6011 25.245C66.5554 25.1816 66.4842 25.1297 66.4428 25.1297C66.3448 25.1297 65.8518 24.6367 65.8518 24.5387C65.8518 24.4973 65.7999 24.4261 65.7365 24.3804C65.6731 24.3347 65.6213 24.2512 65.6213 24.1948C65.6213 24.1384 65.5953 24.0922 65.5636 24.0922C65.5319 24.0922 65.506 24.0144 65.506 23.9193C65.506 23.8242 65.4801 23.7464 65.4484 23.7464C65.4167 23.7464 65.3907 23.6686 65.3907 23.5735C65.3907 23.4784 65.3648 23.4006 65.3331 23.4006C65.3014 23.4006 65.2754 23.2709 65.2754 23.1124C65.2754 22.9539 65.2495 22.8242 65.2178 22.8242C65.1798 22.8242 65.1602 20.7877 65.1602 16.83V10.8357H63.1429H61.1256V16.5994ZM145.045 11.2968C145.045 11.4236 145.071 11.5274 145.103 11.5274C145.135 11.5274 145.16 11.7003 145.16 11.9308C145.16 12.1614 145.185 12.3343 145.218 12.3343C145.255 12.3343 145.275 12.8915 145.275 13.8905C145.275 14.8895 145.255 15.4467 145.218 15.4467C145.186 15.4467 145.16 15.5764 145.16 15.7349C145.16 15.8934 145.134 16.0231 145.103 16.0231C145.071 16.0231 145.045 16.1527 145.045 16.3112C145.045 16.4697 145.019 16.5994 144.987 16.5994C144.956 16.5994 144.93 16.6772 144.93 16.7723C144.93 16.8674 144.904 16.9452 144.872 16.9452C144.84 16.9452 144.814 17.0231 144.814 17.1182C144.814 17.2133 144.788 17.2911 144.757 17.2911C144.725 17.2911 144.699 17.3689 144.699 17.464C144.699 17.5591 144.673 17.6369 144.641 17.6369C144.61 17.6369 144.584 17.6888 144.584 17.7522C144.584 17.8156 144.558 17.8674 144.526 17.8674C144.494 17.8674 144.469 17.9452 144.469 18.0403C144.469 18.1354 144.443 18.2133 144.411 18.2133C144.379 18.2133 144.353 18.2651 144.353 18.3285C144.353 18.3919 144.327 18.4438 144.296 18.4438C144.264 18.4438 144.238 18.4957 144.238 18.5591C144.238 18.6225 144.212 18.6744 144.18 18.6744C144.149 18.6744 144.123 18.7262 144.123 18.7896C144.123 18.853 144.097 18.9049 144.065 18.9049C144.033 18.9049 144.007 18.9511 144.007 19.0074C144.007 19.0639 143.956 19.1474 143.892 19.1931C143.829 19.2388 143.777 19.3166 143.777 19.366C143.777 19.4154 143.725 19.4932 143.662 19.5389C143.598 19.5846 143.546 19.6577 143.546 19.7014C143.546 19.7451 143.469 19.8535 143.373 19.9424C143.278 20.0312 143.201 20.1328 143.201 20.1681C143.201 20.2512 142.358 21.0951 142.275 21.0951C142.24 21.0951 142.112 21.1988 141.99 21.3256C141.868 21.4524 141.733 21.5562 141.69 21.5562C141.647 21.5562 141.575 21.6081 141.529 21.6715C141.483 21.7349 141.4 21.7867 141.343 21.7867C141.287 21.7867 141.241 21.8127 141.241 21.8444C141.241 21.8761 141.195 21.902 141.138 21.902C141.082 21.902 140.998 21.9539 140.953 22.0173C140.907 22.0807 140.823 22.1326 140.767 22.1326C140.711 22.1326 140.664 22.1585 140.664 22.1902C140.664 22.2219 140.613 22.2478 140.549 22.2478C140.486 22.2478 140.434 22.2738 140.434 22.3055C140.434 22.3372 140.382 22.3631 140.319 22.3631C140.255 22.3631 140.203 22.3891 140.203 22.4208C140.203 22.4525 140.126 22.4784 140.03 22.4784C139.935 22.4784 139.858 22.5043 139.858 22.536C139.858 22.5677 139.806 22.5937 139.742 22.5937C139.679 22.5937 139.627 22.6196 139.627 22.6513C139.627 22.683 139.549 22.7089 139.454 22.7089C139.359 22.7089 139.281 22.7349 139.281 22.7666C139.281 22.7983 139.203 22.8242 139.108 22.8242C139.013 22.8242 138.935 22.8501 138.935 22.8818C138.935 22.9135 138.858 22.9395 138.762 22.9395C138.667 22.9395 138.59 22.9654 138.59 22.9971C138.59 23.0288 138.512 23.0548 138.417 23.0548C138.322 23.0548 138.244 23.0807 138.244 23.1124C138.244 23.1441 138.14 23.17 138.013 23.17C137.886 23.17 137.783 23.196 137.783 23.2277C137.783 23.2594 137.679 23.2853 137.552 23.2853C137.425 23.2853 137.322 23.3112 137.322 23.3429C137.322 23.375 137.168 23.4006 136.976 23.4006C136.784 23.4006 136.63 23.4262 136.63 23.4582C136.63 23.4899 136.5 23.5159 136.342 23.5159C136.183 23.5159 136.054 23.5418 136.054 23.5735C136.054 23.6052 135.95 23.6311 135.823 23.6311C135.696 23.6311 135.592 23.6571 135.592 23.6888C135.592 23.7205 135.489 23.7464 135.362 23.7464C135.235 23.7464 135.131 23.7723 135.131 23.804C135.131 23.8357 135.054 23.8617 134.958 23.8617C134.863 23.8617 134.786 23.8876 134.786 23.9193C134.786 23.951 134.682 23.9769 134.555 23.9769C134.428 23.9769 134.324 24.0029 134.324 24.0346C134.324 24.0663 134.247 24.0922 134.152 24.0922C134.056 24.0922 133.979 24.1182 133.979 24.1499C133.979 24.1816 133.927 24.2075 133.863 24.2075C133.8 24.2075 133.748 24.2334 133.748 24.2651C133.748 24.2968 133.67 24.3228 133.575 24.3228C133.48 24.3228 133.402 24.3487 133.402 24.3804C133.402 24.4121 133.35 24.438 133.287 24.438C133.224 24.438 133.172 24.464 133.172 24.4957C133.172 24.5274 133.094 24.5533 132.999 24.5533C132.904 24.5533 132.826 24.5793 132.826 24.611C132.826 24.6427 132.774 24.6686 132.711 24.6686C132.647 24.6686 132.595 24.6945 132.595 24.7262C132.595 24.7579 132.543 24.7839 132.48 24.7839C132.417 24.7839 132.365 24.8098 132.365 24.8415C132.365 24.8732 132.313 24.8991 132.25 24.8991C132.186 24.8991 132.134 24.9251 132.134 24.9568C132.134 24.9885 132.088 25.0144 132.032 25.0144C131.975 25.0144 131.892 25.0663 131.846 25.1297C131.8 25.1931 131.717 25.245 131.66 25.245C131.604 25.245 131.558 25.2709 131.558 25.3026C131.558 25.3343 131.506 25.3602 131.443 25.3602C131.379 25.3602 131.327 25.3862 131.327 25.4179C131.327 25.4496 131.281 25.4755 131.225 25.4755C131.168 25.4755 131.085 25.5274 131.039 25.5908C130.993 25.6542 130.91 25.7061 130.853 25.7061C130.797 25.7061 130.751 25.732 130.751 25.7637C130.751 25.7954 130.71 25.8213 130.659 25.8213C130.608 25.8213 130.494 25.8991 130.405 25.9942C130.316 26.0893 130.213 26.1671 130.175 26.1671C130.137 26.1671 130.033 26.245 129.944 26.3401C129.855 26.4352 129.752 26.513 129.715 26.513C129.679 26.513 129.522 26.6427 129.368 26.8012C129.213 26.9597 129.059 27.0893 129.024 27.0893C128.942 27.0893 128.561 27.4698 128.561 27.5517C128.561 27.5862 128.405 27.7672 128.215 27.9539C128.025 28.1406 127.869 28.328 127.869 28.3703C127.869 28.4126 127.817 28.4846 127.754 28.5303C127.69 28.576 127.639 28.6484 127.639 28.6912C127.639 28.734 127.6 28.808 127.552 28.8555C127.396 29.0114 127.293 28.8258 127.293 28.3903C127.293 28.1762 127.268 28.0115 127.235 28.0115C127.198 28.0115 127.177 27.4544 127.177 26.4553C127.177 25.4563 127.198 24.8991 127.235 24.8991C127.267 24.8991 127.293 24.7454 127.293 24.5533C127.293 24.3612 127.318 24.2075 127.35 24.2075C127.382 24.2075 127.408 24.1037 127.408 23.9769C127.408 23.8501 127.434 23.7464 127.466 23.7464C127.497 23.7464 127.523 23.6427 127.523 23.5159C127.523 23.3891 127.549 23.2853 127.581 23.2853C127.613 23.2853 127.639 23.2075 127.639 23.1124C127.639 23.0173 127.664 22.9395 127.696 22.9395C127.728 22.9395 127.754 22.8617 127.754 22.7666C127.754 22.6715 127.78 22.5937 127.811 22.5937C127.843 22.5937 127.869 22.5159 127.869 22.4208C127.869 22.3256 127.895 22.2478 127.927 22.2478C127.958 22.2478 127.984 22.196 127.984 22.1326C127.984 22.0692 128.01 22.0173 128.042 22.0173C128.074 22.0173 128.1 21.9654 128.1 21.902C128.1 21.8386 128.126 21.7867 128.157 21.7867C128.189 21.7867 128.215 21.7089 128.215 21.6138C128.215 21.5187 128.241 21.4409 128.273 21.4409C128.304 21.4409 128.33 21.3948 128.33 21.3384C128.33 21.282 128.382 21.1984 128.445 21.1527C128.509 21.107 128.561 21.0235 128.561 20.9671C128.561 20.9107 128.587 20.8646 128.618 20.8646C128.65 20.8646 128.676 20.8184 128.676 20.762C128.676 20.7056 128.728 20.6221 128.791 20.5764C128.855 20.5307 128.907 20.4575 128.907 20.4138C128.907 20.3702 128.984 20.2617 129.079 20.1729C129.175 20.0841 129.252 19.9825 129.252 19.9473C129.252 19.8637 130.326 18.7896 130.41 18.7896C130.445 18.7896 130.547 18.7118 130.636 18.6167C130.724 18.5216 130.833 18.4438 130.877 18.4438C130.92 18.4438 130.993 18.3919 131.039 18.3285C131.085 18.2651 131.163 18.2133 131.212 18.2133C131.261 18.2133 131.339 18.1614 131.385 18.098C131.431 18.0346 131.514 17.9827 131.571 17.9827C131.627 17.9827 131.673 17.9568 131.673 17.9251C131.673 17.8934 131.725 17.8674 131.788 17.8674C131.852 17.8674 131.904 17.8415 131.904 17.8098C131.904 17.7781 131.956 17.7522 132.019 17.7522C132.082 17.7522 132.134 17.7262 132.134 17.6945C132.134 17.6628 132.186 17.6369 132.25 17.6369C132.313 17.6369 132.365 17.611 132.365 17.5793C132.365 17.5476 132.417 17.5216 132.48 17.5216C132.543 17.5216 132.595 17.4957 132.595 17.464C132.595 17.4323 132.673 17.4063 132.768 17.4063C132.863 17.4063 132.941 17.3804 132.941 17.3487C132.941 17.317 132.993 17.2911 133.056 17.2911C133.12 17.2911 133.172 17.2651 133.172 17.2334C133.172 17.2017 133.25 17.1758 133.345 17.1758C133.44 17.1758 133.518 17.1499 133.518 17.1182C133.518 17.0865 133.595 17.0605 133.69 17.0605C133.786 17.0605 133.863 17.0346 133.863 17.0029C133.863 16.9712 133.967 16.9452 134.094 16.9452C134.221 16.9452 134.324 16.9193 134.324 16.8876C134.324 16.8559 134.402 16.83 134.497 16.83C134.592 16.83 134.67 16.804 134.67 16.7723C134.67 16.7406 134.774 16.7147 134.901 16.7147C135.028 16.7147 135.131 16.6888 135.131 16.6571C135.131 16.6254 135.261 16.5994 135.42 16.5994C135.578 16.5994 135.708 16.5735 135.708 16.5418C135.708 16.5101 135.837 16.4841 135.996 16.4841C136.154 16.4841 136.284 16.4582 136.284 16.4265C136.284 16.3948 136.414 16.3689 136.572 16.3689C136.731 16.3689 136.86 16.3429 136.86 16.3112C136.86 16.2795 136.964 16.2536 137.091 16.2536C137.218 16.2536 137.322 16.2277 137.322 16.196C137.322 16.1643 137.425 16.1383 137.552 16.1383C137.679 16.1383 137.783 16.1124 137.783 16.0807C137.783 16.049 137.86 16.0231 137.956 16.0231C138.051 16.0231 138.128 15.9971 138.128 15.9654C138.128 15.9337 138.206 15.9078 138.301 15.9078C138.396 15.9078 138.474 15.8818 138.474 15.8501C138.474 15.8184 138.552 15.7925 138.647 15.7925C138.742 15.7925 138.82 15.7666 138.82 15.7349C138.82 15.7032 138.872 15.6772 138.935 15.6772C138.999 15.6772 139.051 15.6513 139.051 15.6196C139.051 15.5879 139.128 15.562 139.224 15.562C139.319 15.562 139.396 15.536 139.396 15.5043C139.396 15.4726 139.448 15.4467 139.512 15.4467C139.575 15.4467 139.627 15.4207 139.627 15.389C139.627 15.3573 139.679 15.3314 139.742 15.3314C139.806 15.3314 139.858 15.3055 139.858 15.2738C139.858 15.2421 139.909 15.2161 139.973 15.2161C140.036 15.2161 140.088 15.1902 140.088 15.1585C140.088 15.1268 140.14 15.1009 140.203 15.1009C140.267 15.1009 140.319 15.0749 140.319 15.0432C140.319 15.0115 140.371 14.9856 140.434 14.9856C140.497 14.9856 140.549 14.9597 140.549 14.928C140.549 14.8963 140.601 14.8703 140.664 14.8703C140.728 14.8703 140.78 14.8444 140.78 14.8127C140.78 14.781 140.832 14.755 140.895 14.755C140.958 14.755 141.01 14.7291 141.01 14.6974C141.01 14.6657 141.056 14.6398 141.113 14.6398C141.169 14.6398 141.253 14.5879 141.298 14.5245C141.344 14.4611 141.422 14.4092 141.471 14.4092C141.521 14.4092 141.599 14.3573 141.644 14.2939C141.69 14.2305 141.768 14.1787 141.817 14.1787C141.867 14.1787 141.944 14.1268 141.99 14.0634C142.036 14 142.108 13.9481 142.151 13.9481C142.195 13.9481 142.329 13.8444 142.451 13.7176C142.573 13.5908 142.701 13.487 142.735 13.487C142.818 13.487 144.353 11.9507 144.353 11.868C144.353 11.8329 144.431 11.7315 144.526 11.6427C144.621 11.5538 144.699 11.4517 144.699 11.4157C144.699 11.3433 144.933 11.0754 145.002 11.0698C145.025 11.0679 145.045 11.17 145.045 11.2968ZM9.71348 14.121C9.71348 14.1556 9.94403 14.1787 10.2898 14.1787C10.6357 14.1787 10.8662 14.2017 10.8662 14.2363C10.8662 14.268 10.9959 14.2939 11.1544 14.2939C11.3129 14.2939 11.4426 14.3199 11.4426 14.3516C11.4426 14.3833 11.5204 14.4092 11.6155 14.4092C11.7106 14.4092 11.7884 14.4352 11.7884 14.4669C11.7884 14.4986 11.8403 14.5245 11.9037 14.5245C11.9671 14.5245 12.019 14.5504 12.019 14.5821C12.019 14.6138 12.0708 14.6398 12.1342 14.6398C12.1976 14.6398 12.2495 14.6657 12.2495 14.6974C12.2495 14.7291 12.289 14.755 12.3372 14.755C12.3855 14.755 12.567 14.8971 12.7407 15.0708C12.9143 15.2444 13.0564 15.426 13.0564 15.4742C13.0564 15.5225 13.0824 15.562 13.1141 15.562C13.1458 15.562 13.1717 15.6138 13.1717 15.6772C13.1717 15.7406 13.1976 15.7925 13.2293 15.7925C13.261 15.7925 13.287 15.8703 13.287 15.9654C13.287 16.0605 13.3129 16.1383 13.3446 16.1383C13.3766 16.1383 13.4022 16.292 13.4022 16.4841C13.4022 16.6763 13.4278 16.83 13.4599 16.83C13.4976 16.83 13.5175 17.8866 13.5175 19.8847C13.5175 21.8828 13.4976 22.9395 13.4599 22.9395C13.4282 22.9395 13.4022 23.0692 13.4022 23.2277C13.4022 23.3862 13.3763 23.5159 13.3446 23.5159C13.3129 23.5159 13.287 23.5937 13.287 23.6888C13.287 23.7839 13.261 23.8617 13.2293 23.8617C13.1976 23.8617 13.1717 23.9338 13.1717 24.0218C13.1717 24.1159 13.1241 24.2163 13.0564 24.2651C12.993 24.3108 12.9411 24.3819 12.9411 24.423C12.9411 24.5279 12.213 25.245 12.1065 25.245C12.0583 25.245 12.019 25.2709 12.019 25.3026C12.019 25.3343 11.9671 25.3602 11.9037 25.3602C11.8403 25.3602 11.7884 25.3862 11.7884 25.4179C11.7884 25.4496 11.7365 25.4755 11.6731 25.4755C11.6097 25.4755 11.5579 25.5014 11.5579 25.5331C11.5579 25.5648 11.4801 25.5908 11.3849 25.5908C11.2898 25.5908 11.212 25.6167 11.212 25.6484C11.212 25.6801 11.0824 25.7061 10.9239 25.7061C10.7654 25.7061 10.6357 25.732 10.6357 25.7637C10.6357 25.7986 10.3859 25.8213 10.0017 25.8213C9.6174 25.8213 9.36766 25.844 9.36766 25.879C9.36766 25.9119 9.19475 25.9366 8.9642 25.9366C8.73365 25.9366 8.56074 25.9119 8.56074 25.879C8.56074 25.844 8.311 25.8213 7.92674 25.8213C7.54247 25.8213 7.29273 25.7986 7.29273 25.7637C7.29273 25.7316 7.13901 25.7061 6.94691 25.7061C6.75481 25.7061 6.60109 25.6805 6.60109 25.6484C6.60109 25.6167 6.52328 25.5908 6.42818 25.5908C6.33308 25.5908 6.25527 25.5648 6.25527 25.5331C6.25527 25.5014 6.20339 25.4755 6.13999 25.4755C6.07659 25.4755 6.02472 25.4496 6.02472 25.4179C6.02472 25.3862 5.97285 25.3602 5.90944 25.3602C5.84604 25.3602 5.79417 25.3343 5.79417 25.3026C5.79417 25.2709 5.748 25.245 5.69164 25.245C5.63521 25.245 5.55169 25.1931 5.50599 25.1297C5.46028 25.0663 5.38789 25.0144 5.34506 25.0144C5.24939 25.0144 5.10253 24.8739 5.10253 24.7823C5.10253 24.7452 5.02472 24.6421 4.92962 24.5533C4.83452 24.4645 4.75671 24.3503 4.75671 24.2997C4.75671 24.2489 4.73077 24.2075 4.69907 24.2075C4.66737 24.2075 4.64143 24.1556 4.64143 24.0922C4.64143 24.0288 4.6155 23.9769 4.5838 23.9769C4.5521 23.9769 4.52616 23.9251 4.52616 23.8617C4.52616 23.7983 4.50022 23.7464 4.46852 23.7464C4.43682 23.7464 4.41089 23.6427 4.41089 23.5159C4.41089 23.3891 4.38495 23.2853 4.35325 23.2853C4.31965 23.2853 4.29561 23.0932 4.29561 22.8242C4.29561 22.5552 4.27158 22.3631 4.23797 22.3631C4.20028 22.3631 4.18034 21.3065 4.18034 19.3084C4.18034 17.3103 4.20028 16.2536 4.23797 16.2536C4.26967 16.2536 4.29561 16.1882 4.29561 16.1082C4.29561 15.9452 4.86391 15.3314 5.01481 15.3314C5.06305 15.3314 5.10253 15.3055 5.10253 15.2738C5.10253 15.2421 5.1544 15.2161 5.2178 15.2161C5.2812 15.2161 5.33308 15.1902 5.33308 15.1585C5.33308 15.1268 5.38495 15.1009 5.44835 15.1009C5.51175 15.1009 5.56362 15.0749 5.56362 15.0432C5.56362 15.0115 5.6155 14.9856 5.6789 14.9856C5.7423 14.9856 5.79417 14.9597 5.79417 14.928C5.79417 14.8963 5.87198 14.8703 5.96708 14.8703C6.06218 14.8703 6.13999 14.8444 6.13999 14.8127C6.13999 14.781 6.19187 14.755 6.25527 14.755C6.31867 14.755 6.37054 14.7291 6.37054 14.6974C6.37054 14.6657 6.44835 14.6398 6.54345 14.6398C6.63855 14.6398 6.71636 14.6138 6.71636 14.5821C6.71636 14.5504 6.79417 14.5245 6.88927 14.5245C6.98437 14.5245 7.06218 14.4986 7.06218 14.4669C7.06218 14.4352 7.16593 14.4092 7.29273 14.4092C7.41953 14.4092 7.52328 14.3833 7.52328 14.3516C7.52328 14.3199 7.62702 14.2939 7.75383 14.2939C7.88063 14.2939 7.98437 14.268 7.98437 14.2363C7.98437 14.2014 8.23411 14.1787 8.61838 14.1787C9.00264 14.1787 9.25238 14.156 9.25238 14.121C9.25238 14.0893 9.35613 14.0634 9.48293 14.0634C9.60973 14.0634 9.71348 14.0893 9.71348 14.121ZM30.3475 14.121C30.3475 14.1539 30.5204 14.1787 30.7509 14.1787C30.9815 14.1787 31.1544 14.2034 31.1544 14.2363C31.1544 14.268 31.2582 14.2939 31.385 14.2939C31.5118 14.2939 31.6155 14.3199 31.6155 14.3516C31.6155 14.3833 31.6933 14.4092 31.7884 14.4092C31.8835 14.4092 31.9613 14.4352 31.9613 14.4669C31.9613 14.4986 32.0132 14.5245 32.0766 14.5245C32.14 14.5245 32.1919 14.5504 32.1919 14.5821C32.1919 14.6138 32.2333 14.6398 32.284 14.6398C32.3347 14.6398 32.4489 14.7176 32.5377 14.8127C32.6265 14.9078 32.7296 14.9856 32.7667 14.9856C32.8537 14.9856 32.9988 15.1307 32.9988 15.2177C32.9988 15.2548 33.0766 15.3579 33.1717 15.4467C33.2668 15.5355 33.3446 15.6497 33.3446 15.7003C33.3446 15.7511 33.3705 15.7925 33.4022 15.7925C33.4339 15.7925 33.4599 15.8444 33.4599 15.9078C33.4599 15.9712 33.4858 16.0231 33.5175 16.0231C33.5492 16.0231 33.5752 16.1009 33.5752 16.196C33.5752 16.2911 33.6011 16.3689 33.6328 16.3689C33.6648 16.3689 33.6904 16.5226 33.6904 16.7147C33.6904 16.9068 33.716 17.0605 33.7481 17.0605C33.7826 17.0605 33.8057 17.2911 33.8057 17.6369C33.8057 17.9827 33.7826 18.2133 33.7481 18.2133C33.7164 18.2133 33.6904 18.2651 33.6904 18.3285C33.6904 18.4429 33.652 18.4438 29.0218 18.4438H24.3533V17.464C24.3533 16.8492 24.3748 16.4841 24.4109 16.4841C24.4426 16.4841 24.4685 16.4063 24.4685 16.3112C24.4685 16.2161 24.4945 16.1383 24.5262 16.1383C24.5579 16.1383 24.5838 16.0865 24.5838 16.0231C24.5838 15.9597 24.6097 15.9078 24.6414 15.9078C24.6731 15.9078 24.6991 15.8616 24.6991 15.8052C24.6991 15.7488 24.7509 15.6653 24.8143 15.6196C24.8777 15.5739 24.9296 15.5025 24.9296 15.4609C24.9296 15.3625 25.3066 14.9856 25.4049 14.9856C25.4465 14.9856 25.5179 14.9337 25.5636 14.8703C25.6093 14.8069 25.6928 14.755 25.7493 14.755C25.8056 14.755 25.8518 14.7291 25.8518 14.6974C25.8518 14.6657 25.9037 14.6398 25.9671 14.6398C26.0305 14.6398 26.0824 14.6138 26.0824 14.5821C26.0824 14.5504 26.1342 14.5245 26.1976 14.5245C26.261 14.5245 26.3129 14.4986 26.3129 14.4669C26.3129 14.4352 26.3907 14.4092 26.4858 14.4092C26.5809 14.4092 26.6587 14.3833 26.6587 14.3516C26.6587 14.3195 26.8124 14.2939 27.0045 14.2939C27.1967 14.2939 27.3504 14.2684 27.3504 14.2363C27.3504 14.2034 27.5233 14.1787 27.7538 14.1787C27.9844 14.1787 28.1573 14.1539 28.1573 14.121C28.1573 14.0846 28.5607 14.0634 29.2524 14.0634C29.944 14.0634 30.3475 14.0846 30.3475 14.121ZM50.8662 14.121C50.8662 14.1527 50.9959 14.1787 51.1544 14.1787C51.3129 14.1787 51.4426 14.2046 51.4426 14.2363C51.4426 14.268 51.5204 14.2939 51.6155 14.2939C51.7106 14.2939 51.7884 14.3199 51.7884 14.3516C51.7884 14.3833 51.8662 14.4092 51.9613 14.4092C52.0564 14.4092 52.1342 14.4352 52.1342 14.4669C52.1342 14.4986 52.1861 14.5245 52.2495 14.5245C52.3129 14.5245 52.3648 14.5504 52.3648 14.5821C52.3648 14.6138 52.4057 14.6398 52.4557 14.6398C52.5058 14.6398 52.6464 14.7435 52.7682 14.8703C52.8901 14.9971 53.0196 15.1009 53.056 15.1009C53.1466 15.1009 53.287 15.2482 53.287 15.3434C53.287 15.3862 53.3388 15.4586 53.4022 15.5043C53.4656 15.55 53.5175 15.6335 53.5175 15.69C53.5175 15.7463 53.5435 15.7925 53.5752 15.7925C53.6069 15.7925 53.6328 15.8444 53.6328 15.9078C53.6328 15.9712 53.6587 16.0231 53.6904 16.0231C53.7221 16.0231 53.7481 16.1009 53.7481 16.196C53.7481 16.2911 53.774 16.3689 53.8057 16.3689C53.8374 16.3689 53.8633 16.4726 53.8633 16.5994C53.8633 16.7262 53.8893 16.83 53.921 16.83C53.9546 16.83 53.9786 17.0221 53.9786 17.2911C53.9786 17.5601 54.0027 17.7522 54.0363 17.7522C54.0737 17.7522 54.0939 18.5014 54.0939 19.8847C54.0939 21.268 54.0737 22.0173 54.0363 22.0173C54.0046 22.0173 53.9786 22.121 53.9786 22.2478C53.9786 22.3746 53.9527 22.4784 53.921 22.4784C53.8893 22.4784 53.8633 22.5191 53.8633 22.5689C53.8633 22.6854 53.7246 22.8242 53.6081 22.8242C53.5583 22.8242 53.5175 22.8501 53.5175 22.8818C53.5175 22.9135 53.4656 22.9395 53.4022 22.9395C53.3388 22.9395 53.287 22.9654 53.287 22.9971C53.287 23.0288 53.2351 23.0548 53.1717 23.0548C53.1083 23.0548 53.0564 23.0807 53.0564 23.1124C53.0564 23.1441 53.0046 23.17 52.9412 23.17C52.8778 23.17 52.8259 23.196 52.8259 23.2277C52.8259 23.2594 52.7481 23.2853 52.653 23.2853C52.5579 23.2853 52.4801 23.3112 52.4801 23.3429C52.4801 23.3746 52.4022 23.4006 52.3071 23.4006C52.212 23.4006 52.1342 23.4265 52.1342 23.4582C52.1342 23.4899 52.0824 23.5159 52.019 23.5159C51.9556 23.5159 51.9037 23.5418 51.9037 23.5735C51.9037 23.6052 51.7999 23.6311 51.6731 23.6311C51.5463 23.6311 51.4426 23.6571 51.4426 23.6888C51.4426 23.7205 51.3388 23.7464 51.212 23.7464C51.0852 23.7464 50.9815 23.7723 50.9815 23.804C50.9815 23.8357 50.8518 23.8617 50.6933 23.8617C50.5348 23.8617 50.4051 23.8876 50.4051 23.9193C50.4051 23.9529 50.213 23.9769 49.944 23.9769C49.675 23.9769 49.4829 24.001 49.4829 24.0346C49.4829 24.0695 49.2332 24.0922 48.8489 24.0922C48.4647 24.0922 48.2149 24.0695 48.2149 24.0346C48.2149 24.001 48.0228 23.9769 47.7538 23.9769C47.4848 23.9769 47.2927 23.9529 47.2927 23.9193C47.2927 23.8876 47.189 23.8617 47.0622 23.8617C46.9354 23.8617 46.8316 23.8357 46.8316 23.804C46.8316 23.7723 46.7538 23.7464 46.6587 23.7464C46.5636 23.7464 46.4858 23.7205 46.4858 23.6888C46.4858 23.6571 46.408 23.6311 46.3129 23.6311C46.2178 23.6311 46.14 23.6052 46.14 23.5735C46.14 23.5418 46.0986 23.5159 46.0478 23.5159C45.9972 23.5159 45.883 23.438 45.7942 23.3429C45.7054 23.2478 45.5912 23.17 45.5405 23.17C45.4898 23.17 45.4484 23.1286 45.4484 23.0779C45.4484 23.0272 45.3705 22.913 45.2754 22.8242C45.1803 22.7354 45.1025 22.6212 45.1025 22.5705C45.1025 22.5198 45.0766 22.4784 45.0449 22.4784C45.0132 22.4784 44.9873 22.4006 44.9873 22.3055C44.9873 22.2104 44.9613 22.1326 44.9296 22.1326C44.8979 22.1326 44.872 22.0029 44.872 21.8444C44.872 21.6859 44.8461 21.5562 44.8144 21.5562C44.7787 21.5562 44.7567 21.2488 44.7567 20.7493C44.7567 20.2497 44.7348 19.9424 44.6991 19.9424C44.6628 19.9424 44.6414 19.5581 44.6414 18.9049C44.6414 18.2517 44.6628 17.8674 44.6991 17.8674C44.7337 17.8674 44.7567 17.6369 44.7567 17.2911C44.7567 16.9452 44.7798 16.7147 44.8144 16.7147C44.8461 16.7147 44.872 16.611 44.872 16.4841C44.872 16.3573 44.8979 16.2536 44.9296 16.2536C44.9613 16.2536 44.9873 16.2017 44.9873 16.1383C44.9873 16.0749 45.0132 16.0231 45.0449 16.0231C45.0766 16.0231 45.1025 15.9712 45.1025 15.9078C45.1025 15.8444 45.1285 15.7925 45.1602 15.7925C45.1919 15.7925 45.2178 15.7463 45.2178 15.69C45.2178 15.6335 45.2697 15.55 45.3331 15.5043C45.3965 15.4586 45.4484 15.3869 45.4484 15.3449C45.4484 15.3029 45.512 15.2049 45.5899 15.1271C45.6677 15.0493 45.7656 14.9856 45.8077 14.9856C45.8496 14.9856 45.9214 14.9337 45.9671 14.8703C46.0128 14.8069 46.0906 14.755 46.14 14.755C46.1894 14.755 46.2672 14.7032 46.3129 14.6398C46.3617 14.5721 46.4621 14.5245 46.5562 14.5245C46.6443 14.5245 46.7164 14.4986 46.7164 14.4669C46.7164 14.4352 46.7942 14.4092 46.8893 14.4092C46.9844 14.4092 47.0622 14.3833 47.0622 14.3516C47.0622 14.3199 47.1659 14.2939 47.2927 14.2939C47.4195 14.2939 47.5233 14.268 47.5233 14.2363C47.5233 14.2034 47.6962 14.1787 47.9267 14.1787C48.1573 14.1787 48.3302 14.1539 48.3302 14.121C48.3302 14.0844 48.7913 14.0634 49.5982 14.0634C50.4051 14.0634 50.8662 14.0844 50.8662 14.121Z" fill="black"/>
</svg>
