<svg width="122" height="40" viewBox="0 0 122 40" fill="none" xmlns="http://www.w3.org/2000/svg">
<path d="M52.0463 21.0502C52.0463 26.805 47.5442 31.0457 42.0192 31.0457C36.4942 31.0457 31.9922 26.805 31.9922 21.0502C31.9922 15.2548 36.4942 11.0547 42.0192 11.0547C47.5442 11.0547 52.0463 15.2548 52.0463 21.0502ZM47.6569 21.0502C47.6569 17.454 45.0476 14.9934 42.0192 14.9934C38.9908 14.9934 36.3815 17.454 36.3815 21.0502C36.3815 24.6103 38.9908 27.107 42.0192 27.107C45.0476 27.107 47.6569 24.6058 47.6569 21.0502Z" fill="#1E1E1E"/>
<path d="M73.6771 21.0502C73.6771 26.805 69.1751 31.0457 63.6501 31.0457C58.1251 31.0457 53.623 26.805 53.623 21.0502C53.623 15.2593 58.1251 11.0547 63.6501 11.0547C69.1751 11.0547 73.6771 15.2548 73.6771 21.0502ZM69.2878 21.0502C69.2878 17.454 66.6785 14.9934 63.6501 14.9934C60.6217 14.9934 58.0124 17.454 58.0124 21.0502C58.0124 24.6103 60.6217 27.107 63.6501 27.107C66.6785 27.107 69.2878 24.6058 69.2878 21.0502Z" fill="#1E1E1E"/>
<path d="M94.4079 11.6586V29.6036C94.4079 36.9853 90.0546 40.0001 84.9081 40.0001C80.0636 40.0001 77.1479 36.76 76.0483 34.1101L79.8698 32.5193C80.5503 34.1462 82.2177 36.0659 84.9036 36.0659C88.1979 36.0659 90.2393 34.0335 90.2393 30.2075V28.7699H90.0861C89.1037 29.9821 87.2109 31.0412 84.8225 31.0412C79.8247 31.0412 75.2461 26.6878 75.2461 21.0862C75.2461 15.444 79.8247 11.0547 84.8225 11.0547C87.2064 11.0547 89.0992 12.1137 90.0861 13.2899H90.2393V11.6631H94.4079V11.6586ZM90.5503 21.0862C90.5503 17.5666 88.2024 14.9934 85.2145 14.9934C82.1862 14.9934 79.649 17.5666 79.649 21.0862C79.649 24.5698 82.1862 27.107 85.2145 27.107C88.2024 27.107 90.5503 24.5698 90.5503 21.0862Z" fill="#1E1E1E"/>
<path d="M101.279 1.14014V30.4326H96.998V1.14014H101.279Z" fill="#1E1E1E"/>
<path d="M117.963 24.3396L121.37 26.6109C120.27 28.2377 117.621 31.0408 113.042 31.0408C107.364 31.0408 103.123 26.6514 103.123 21.0453C103.123 15.1012 107.4 11.0498 112.551 11.0498C117.738 11.0498 120.275 15.1778 121.104 17.4085L121.559 18.5442L108.197 24.0782C109.22 26.0836 110.811 27.1066 113.042 27.1066C115.277 27.1066 116.827 26.007 117.963 24.3396ZM107.476 20.7434L116.408 17.0345C115.917 15.7862 114.439 14.9164 112.699 14.9164C110.469 14.9164 107.364 16.8858 107.476 20.7434Z" fill="#1E1E1E"/>
<path d="M15.7862 18.4497V14.2091H30.0765C30.2162 14.9482 30.2883 15.8224 30.2883 16.7688C30.2883 19.9504 29.4185 23.8846 26.6154 26.6877C23.889 29.5268 20.4054 31.041 15.7907 31.041C7.23735 31.041 0.0449219 24.0739 0.0449219 15.5205C0.0449219 6.9671 7.23735 0 15.7907 0C20.5226 0 23.8935 1.85669 26.4262 4.2767L23.4338 7.26904C21.6177 5.56557 19.1571 4.24065 15.7862 4.24065C9.54019 4.24065 4.65511 9.27444 4.65511 15.5205C4.65511 21.7666 9.54019 26.8004 15.7862 26.8004C19.8376 26.8004 22.145 25.1735 23.6231 23.6953C24.8218 22.4966 25.6105 20.7841 25.9214 18.4452L15.7862 18.4497Z" fill="#1E1E1E"/>
</svg>
