<svg width="159" height="28" viewBox="0 0 159 28" fill="none" xmlns="http://www.w3.org/2000/svg">
<path fill-rule="evenodd" clip-rule="evenodd" d="M28.3414 0H5.94171H0.341797V5.59992V22.3995V27.9994V27.9996H5.94171V27.9994H22.7373V27.9995H28.3372V27.9994H28.3414V22.3995H28.3372V16.7997H28.3383V11.1998H28.3372H22.7373H11.5385V16.7997H22.7373V22.3995H5.94171V5.59992H28.3414V0ZM60.8196 0H60.8194H55.2195H38.4199H32.82V5.59992V27.9996H38.4199V5.59992H55.2195V11.1998H38.4224V16.7997H48.3499L54.8164 28.0001H61.2827L54.8161 16.7997H55.2195V16.7998H60.8194V5.59992H60.8196V0ZM87.6977 11.1998H70.9001V5.59992H87.6977V11.1998ZM87.6977 16.7997H70.9001V27.9996H65.3002V0H68.6645H70.9001H87.6977H89.9442H93.2976V27.9996H87.6977V16.7997ZM120.18 11.1998V5.59992H103.378V11.1998H120.18ZM120.18 0H103.378H97.7784V5.59992V11.1998V16.7997V27.9996H103.378V16.7997H120.18V16.7998H125.78V0H125.778H120.18ZM152.656 11.1998H135.857V5.59992H158.256V0H135.857H130.257V5.59992V11.1998V16.7997V22.3995V27.9994V27.9996H135.857V27.9994H158.256V22.3995H135.857V16.7997H152.656V11.1998Z" fill="#1E1E1E"/>
</svg>
