<svg width="119" height="40" viewBox="0 0 119 40" fill="none" xmlns="http://www.w3.org/2000/svg">
<path d="M118.34 3.68994H114.549V29.4314H118.34V3.68994Z" fill="#1E1E1E"/>
<path fill-rule="evenodd" clip-rule="evenodd" d="M110.342 29.4298H106.551V11.1883H110.342V29.4298ZM108.447 3.04834C109.86 3.04834 111.007 4.19548 111.007 5.60834C111.007 7.0212 109.86 8.16834 108.447 8.16834C107.034 8.16834 105.887 7.0212 105.887 5.60834C105.887 4.19548 107.034 3.04834 108.447 3.04834Z" fill="#1E1E1E"/>
<path fill-rule="evenodd" clip-rule="evenodd" d="M102.641 29.459H98.9158V27.4633C97.5801 28.9762 95.2272 29.9276 93.0144 29.9276C87.7229 29.9276 83.4258 25.6305 83.4258 20.3376C83.4258 15.0462 87.7229 10.749 93.0144 10.749C95.2272 10.749 97.4558 11.5833 98.9158 13.0562V11.2176H102.641V29.459ZM93.1358 14.5819C96.3986 14.5819 98.9658 16.9162 98.9658 20.3376C98.9658 23.759 96.3986 26.1147 93.1358 26.1147C89.8729 26.1147 87.3929 23.6019 87.3929 20.3376C87.3929 17.0747 89.8729 14.5819 93.1358 14.5819Z" fill="#1E1E1E"/>
<path fill-rule="evenodd" clip-rule="evenodd" d="M55.3853 29.459H51.6582V11.2176H55.3853V12.4919C56.2125 11.7133 57.7639 10.7519 59.9154 10.749C62.5611 10.749 64.5325 11.8619 65.8825 13.6519C67.3596 11.879 69.7954 10.749 72.2768 10.749C76.9339 10.749 80.1082 13.8933 80.1082 18.7933V29.459H76.3811V18.7933C76.3811 16.4133 74.4439 14.4762 72.0639 14.4762C69.6825 14.4762 67.7468 16.4133 67.7468 18.7933V29.459H64.0196V18.7933C64.0196 16.4133 62.0825 14.4762 59.7025 14.4762C57.3225 14.4762 55.3853 16.4133 55.3853 18.7933V29.459Z" fill="#1E1E1E"/>
<path d="M26.6563 20C26.6563 23.3171 23.9578 26.0157 20.6406 26.0157C17.3235 26.0157 14.6249 23.3171 14.6249 20C14.6249 16.6829 17.3235 13.9843 20.6406 13.9843C23.9578 13.9843 26.6563 16.6829 26.6563 20ZM20.6406 0C9.61205 0 0.640625 8.97143 0.640625 20C0.640625 31.0286 9.61205 40 20.6406 40C24.6806 40 28.5763 38.7971 31.9063 36.5214L31.9635 36.4814L29.2692 33.35L29.2235 33.3786C26.6606 35.0286 23.6921 35.9 20.6406 35.9C11.8735 35.9 4.74063 28.7671 4.74063 20C4.74063 11.2329 11.8735 4.1 20.6406 4.1C29.4078 4.1 36.5406 11.2329 36.5406 20C36.5406 21.1357 36.4135 22.2857 36.1663 23.4171C35.6635 25.4814 34.2178 26.1129 33.1335 26.03C32.0421 25.9414 30.7649 25.1643 30.7563 23.2614V21.8114V20C30.7563 14.4214 26.2192 9.88429 20.6406 9.88429C15.0621 9.88429 10.5249 14.4214 10.5249 20C10.5249 25.5786 15.0621 30.1157 20.6406 30.1157C23.3506 30.1157 25.8921 29.0571 27.8078 27.13C28.9221 28.8643 30.7378 29.9514 32.8049 30.1171C32.9821 30.1314 33.1635 30.1386 33.3421 30.1386C34.7978 30.1386 36.2392 29.6514 37.4021 28.77C38.6006 27.8586 39.4963 26.5429 39.9906 24.9614C40.0692 24.7057 40.2149 24.1214 40.2149 24.1171L40.2192 24.0957C40.5106 22.8271 40.6406 21.5629 40.6406 20C40.6406 8.97143 31.6692 0 20.6406 0Z" fill="#1E1E1E"/>
</svg>
