<svg width="106" height="60" viewBox="0 0 106 60" fill="none" xmlns="http://www.w3.org/2000/svg">
<path d="M16.774 27.9321C17.8942 28.7921 19.0484 29.6068 20.1913 30.4442C21.0286 31.0439 21.8547 31.6549 22.7033 32.2659C22.7938 32.0283 22.7033 31.8699 22.6581 31.7115C21.9452 29.5276 21.2323 27.3437 20.5081 25.1712C20.3837 24.8204 20.4063 24.6054 20.7571 24.3904C21.2889 24.0622 21.7755 23.6775 22.2733 23.3041C23.767 22.2178 25.2606 21.1428 26.7429 20.0566C26.7203 20.0113 26.709 19.966 26.6864 19.9321C26.5393 19.9321 26.3922 19.9321 26.2451 19.9321C24.0046 19.9321 21.7528 19.9208 19.5124 19.9547C19.0145 19.966 18.7316 19.8642 18.5958 19.3211C18.3582 18.4158 18.03 17.5219 17.7471 16.628C17.2945 15.2249 16.8306 13.8217 16.378 12.396C16.1743 12.5205 16.163 12.7128 16.1177 12.8712C15.4162 15.0325 14.7033 17.2051 14.0357 19.3776C13.8999 19.8303 13.6849 19.9547 13.2436 19.9547C11.32 19.9321 9.39634 19.9434 7.47271 19.9434C6.9522 19.9434 6.443 19.9434 5.77539 19.9434C5.96775 20.1018 6.03565 20.1584 6.11485 20.215C8.03848 21.6068 9.9508 23.0099 11.8857 24.3904C12.1913 24.6167 12.2818 24.7977 12.146 25.1825C11.6029 26.7666 11.0937 28.3621 10.5731 29.9576C10.3242 30.7157 10.0866 31.4739 9.79238 32.3791C10.1432 32.1302 10.3582 31.9944 10.5731 31.836C12.3384 30.546 14.1036 29.2674 15.8688 27.9661C16.1743 27.6945 16.4119 27.6492 16.774 27.9321Z" fill="#1E1E1E"/>
<path d="M10.3804 53.754C10.1541 53.4711 10.1541 53.3127 10.437 53.0637C11.1272 52.4527 11.7722 51.7851 12.4511 51.1627C12.6661 50.9591 12.7906 50.7554 12.7793 50.4272C12.7567 49.2957 12.768 48.1641 12.7793 47.0326C12.7793 46.761 12.7114 46.5687 12.5077 46.3876C11.8401 45.7766 11.1838 45.1542 10.5501 44.5092C10.2786 44.2264 9.99569 44.1245 9.59965 44.1245C6.86131 44.1358 4.13428 44.1245 1.39594 44.1358C0.502016 44.1358 0.569909 43.9887 0.569909 44.9392C0.569909 47.2363 0.569909 49.5446 0.569909 51.8417C0.569909 54.2519 0.581225 56.6734 0.558594 59.0836C0.558594 59.4796 0.671748 59.6154 1.06779 59.5927C1.61093 59.5588 2.16539 59.5588 2.70853 59.5927C3.17247 59.6267 3.31957 59.4796 3.30825 59.0043C3.28562 57.307 3.30825 55.6097 3.28562 53.9124C3.28562 53.4711 3.42141 53.324 3.86271 53.3466C4.62084 53.3806 5.36766 53.3806 6.1258 53.3466C6.53316 53.324 6.77078 53.4824 7.00841 53.7992C8.52468 55.7908 10.0636 57.771 11.5799 59.7625C11.7835 60.0341 11.9306 60.0793 12.2022 59.8643C12.6548 59.5249 13.1188 59.1967 13.6053 58.9251C14.0693 58.6649 14.024 58.4386 13.7298 58.0652C12.6209 56.6507 11.512 55.191 10.3804 53.754ZM10.0183 49.6012C10.0183 49.9746 9.03387 50.6762 8.62652 50.6762C7.00841 50.6875 5.3903 50.6762 3.77218 50.6875C3.41009 50.6875 3.28562 50.5856 3.29694 50.2122C3.31957 49.2504 3.31957 48.2886 3.29694 47.3381C3.28562 46.9534 3.38746 46.8063 3.79482 46.8176C4.59821 46.8515 5.41293 46.8289 6.22764 46.8289C6.99709 46.8289 7.76654 46.8402 8.54731 46.8289C8.89809 46.8176 9.1244 46.9873 9.39597 47.1684C10.3691 47.7794 10.0296 48.7412 10.0183 49.6012Z" fill="#1E1E1E"/>
<path d="M90.606 46.3536C89.9158 45.7086 89.2369 45.0523 88.5693 44.396C88.3769 44.2036 88.1732 44.1357 87.913 44.1357C85.0728 44.1471 82.2213 44.1471 79.3811 44.1357C79.0077 44.1357 78.8945 44.2376 78.8945 44.6223C78.9058 47.0325 78.9058 49.4427 78.9058 51.8529C78.9058 54.2404 78.9172 56.6393 78.8945 59.0269C78.8945 59.4682 79.0077 59.5927 79.4603 59.5927C82.2439 59.57 85.0388 59.5813 87.8224 59.5927C88.1506 59.5927 88.3995 59.4908 88.6258 59.2645C89.2708 58.6308 89.9045 57.9859 90.5721 57.3748C90.7984 57.1598 90.9002 56.9562 90.9002 56.6506C90.8889 53.4484 90.8889 50.2461 90.9002 47.0438C90.9002 46.7496 90.8097 46.5459 90.606 46.3536ZM88.1845 55.4512C88.1845 56.0849 87.3811 56.8883 86.7361 56.8996C85.2086 56.8996 83.681 56.8883 82.1647 56.9109C81.7687 56.9109 81.6442 56.7977 81.6555 56.4017C81.6781 54.8741 81.6668 53.3465 81.6668 51.8189C81.6668 50.314 81.6781 48.809 81.6555 47.2928C81.6555 46.9307 81.746 46.7949 82.1308 46.8062C83.6923 46.8288 85.2538 46.8062 86.8154 46.8175C87.3585 46.8175 88.1958 47.6775 88.1958 48.2206C88.1845 50.6308 88.1845 53.041 88.1845 55.4512Z" fill="#1E1E1E"/>
<path d="M41.9729 47.0439C41.9729 46.7723 41.905 46.58 41.7127 46.3989C41.0224 45.7539 40.3435 45.109 39.6759 44.4413C39.4382 44.2037 39.1893 44.1245 38.8725 44.1245C36.0889 44.1358 33.2939 44.1358 30.5103 44.1245C30.0917 44.1245 29.9785 44.2377 29.9785 44.6677C30.0011 47.0552 29.9898 49.4541 29.9898 51.8417C29.9898 54.2519 30.0011 56.662 29.9785 59.0722C29.9785 59.457 30.069 59.5927 30.4764 59.5814C33.2826 59.5588 36.0889 59.5701 38.8951 59.5814C39.2006 59.5814 39.4269 59.5022 39.6532 59.2872C40.3208 58.6309 40.9998 57.9746 41.69 57.3297C41.905 57.1373 41.9842 56.9336 41.9842 56.6394C41.9616 53.4485 41.9616 50.2462 41.9729 47.0439ZM37.9333 56.8884C36.3152 56.8997 34.6858 56.8884 33.0676 56.8997C32.7055 56.8997 32.6829 56.7186 32.6829 56.447C32.6829 54.8968 32.6829 53.3579 32.6829 51.8077C32.6829 50.3028 32.6942 48.7865 32.6716 47.2815C32.6716 46.9081 32.7848 46.8063 33.1468 46.8063C34.7084 46.8176 36.2812 46.8063 37.8428 46.8176C38.3972 46.8176 39.2232 47.6549 39.2232 48.1981C39.2346 50.6535 39.2459 53.0977 39.2459 55.5531C39.2572 56.0057 38.3859 56.8884 37.9333 56.8884Z" fill="#1E1E1E"/>
<path d="M26.823 56.8772C24.3335 56.9112 21.8441 56.8772 19.3547 56.8998C18.9361 56.8998 18.8003 56.7867 18.8116 56.3567C18.8455 55.4288 18.8569 54.5123 18.8116 53.5844C18.789 53.03 18.9248 52.8376 19.5245 52.8489C21.3915 52.8942 23.2586 52.8489 25.1256 52.8828C25.6235 52.8942 25.7367 52.7357 25.7027 52.2831C25.6688 51.7966 25.6575 51.2987 25.7027 50.8121C25.748 50.3256 25.6122 50.1671 25.0917 50.1785C23.1907 50.2124 21.2784 50.1785 19.3774 50.2011C18.9248 50.2124 18.789 50.0653 18.8116 49.624C18.8455 48.9111 18.8569 48.1869 18.8003 47.4741C18.7663 46.9309 18.9361 46.7838 19.4792 46.7838C21.9347 46.8178 24.3788 46.7838 26.8343 46.8064C27.2643 46.8064 27.4 46.6933 27.3661 46.2633C27.3321 45.7202 27.3321 45.1657 27.3661 44.6226C27.3887 44.2265 27.2529 44.1021 26.8569 44.1021C23.4396 44.1134 20.0337 44.1134 16.6164 44.1021C16.1412 44.1021 16.0619 44.2831 16.0733 44.6905C16.0846 47.0667 16.0846 49.4429 16.0846 51.8192C16.0846 54.2181 16.0959 56.6056 16.0733 59.0045C16.0733 59.4345 16.1864 59.5477 16.6164 59.5363C20.1016 59.525 23.598 59.5363 27.0832 59.559C27.4227 59.559 27.5019 59.4345 27.4906 59.129C27.4679 58.5972 27.4566 58.0653 27.5019 57.5448C27.5358 57.0469 27.3887 56.8772 26.823 56.8772Z" fill="#1E1E1E"/>
<path d="M75.7948 56.8884C73.2828 56.9223 70.7821 56.8884 68.27 56.911C67.8853 56.911 67.7382 56.8318 67.7495 56.4131C67.7835 55.4513 67.7835 54.4895 67.7495 53.5277C67.7269 53.0185 67.8514 52.8487 68.3945 52.8601C70.2955 52.894 72.2078 52.86 74.1088 52.894C74.5614 52.9053 74.7085 52.7695 74.6746 52.3169C74.6406 51.8077 74.6406 51.2985 74.6746 50.7893C74.7085 50.3254 74.5614 50.1783 74.0862 50.1896C72.1399 50.2235 70.205 50.1896 68.2587 50.2122C67.8627 50.2122 67.7382 50.0991 67.7608 49.703C67.7948 48.9336 67.7948 48.1528 67.7608 47.3834C67.7382 46.8968 67.8966 46.795 68.3605 46.795C70.8499 46.8176 73.3393 46.795 75.8287 46.8176C76.1795 46.8176 76.3379 46.761 76.3153 46.3537C76.2701 45.8105 76.2814 45.2561 76.3153 44.7129C76.3493 44.2377 76.1682 44.1245 75.7043 44.1245C72.3436 44.1471 68.9942 44.1358 65.6335 44.1245C65.1696 44.1245 65.0225 44.249 65.0338 44.7242C65.0564 47.1005 65.0451 49.4767 65.0451 51.853C65.0451 54.2632 65.0451 56.6847 65.0451 59.0949C65.0451 59.423 65.0904 59.6041 65.4977 59.6041C68.9829 59.5927 72.4794 59.5927 75.9645 59.6041C76.304 59.6041 76.4398 59.5249 76.4285 59.1628C76.4058 58.6196 76.3945 58.0652 76.4285 57.522C76.4511 57.0241 76.304 56.877 75.7948 56.8884Z" fill="#1E1E1E"/>
<path d="M105.339 53.2448C105.339 53.0071 105.283 52.8261 105.09 52.6564C104.4 52.0227 103.721 51.3551 103.054 50.6988C102.805 50.4499 102.544 50.3593 102.194 50.3593C100.779 50.3706 99.3647 50.3593 97.9502 50.3706C97.656 50.3706 97.4297 50.2914 97.1808 50.0991C96.6376 49.6691 96.3887 49.1712 96.4453 48.447C96.5132 47.5305 97.1808 46.8176 98.12 46.8176C100.27 46.8176 102.42 46.8063 104.57 46.8289C104.966 46.8289 105.102 46.7158 105.079 46.3197C105.045 45.7766 105.045 45.2221 105.079 44.679C105.102 44.2716 105 44.1245 104.547 44.1245C101.967 44.1471 99.3873 44.1358 96.7961 44.1245C96.4679 44.1245 96.2303 44.2377 96.004 44.4527C95.3477 45.0976 94.6801 45.7313 94.0011 46.365C93.7861 46.5573 93.7069 46.7723 93.7182 47.0552C93.7296 48.051 93.7409 49.0581 93.7182 50.0538C93.7069 50.4159 93.8427 50.6535 94.0917 50.8912C94.7366 51.4909 95.3816 52.1019 96.0153 52.7243C96.2529 52.9619 96.4905 53.0411 96.8187 53.0411C98.2557 53.0298 99.6815 53.0411 101.119 53.0298C101.424 53.0298 101.628 53.1543 101.865 53.3127C102.624 53.8105 102.624 54.5234 102.601 55.2929C102.567 56.1189 101.843 56.877 101.017 56.877C98.731 56.877 96.4566 56.8884 94.1709 56.877C93.8201 56.877 93.673 56.9449 93.6956 57.341C93.7409 57.9407 93.7182 58.5517 93.6956 59.1514C93.6843 59.457 93.7861 59.5814 94.1143 59.5701C95.4948 59.5475 96.8639 59.5588 98.2444 59.5588C98.2444 59.5475 98.2444 59.5475 98.2444 59.5362C99.5797 59.5362 100.926 59.5362 102.261 59.5362C102.533 59.5362 102.771 59.5022 102.974 59.2872C103.665 58.597 104.377 57.9181 105.09 57.2504C105.271 57.0807 105.339 56.8997 105.328 56.662C105.328 55.5418 105.328 54.3876 105.339 53.2448Z" fill="#1E1E1E"/>
<path d="M33.8485 15.0665C34.8783 14.2745 35.9419 13.5276 37.0169 12.7921C37.3563 12.5545 37.3903 12.3848 37.1866 12.0227C34.9914 8.06226 31.9589 4.95051 28.0211 2.71005C25.6901 1.38614 23.2007 0.492219 20.5416 0.0282854C20.3039 -0.0735537 20.236 0.118809 20.1795 0.299856C19.7382 1.65771 19.3082 3.02688 18.8442 4.38474C18.7311 4.73552 18.8669 4.80341 19.1724 4.83736C20.3492 4.99577 21.5034 5.26734 22.6236 5.6747C27.2856 7.38334 30.7821 10.4272 33.0565 14.8629C33.2715 15.2928 33.4186 15.406 33.8485 15.0665Z" fill="#1E1E1E"/>
<path d="M62.4428 45.5617C62.7483 45.1883 62.6691 45.0186 62.307 44.8036C61.8317 44.5207 61.3791 44.2265 60.9378 43.8983C60.621 43.672 60.4399 43.6607 60.1684 44.0115C58.8105 45.7767 57.3508 47.4627 56.0722 49.2732C55.3706 50.2689 54.5898 50.665 53.4017 50.5292C52.8925 50.4726 52.7907 50.3482 52.7907 49.8729C52.8133 48.153 52.768 46.4443 52.8133 44.7244C52.8246 44.1925 52.6436 44.0794 52.1683 44.1133C51.6478 44.1473 51.116 44.1473 50.5842 44.1133C50.1655 44.0907 50.041 44.2152 50.041 44.6452C50.0636 47.044 50.0523 49.4316 50.0523 51.8305C50.0523 54.2407 50.0636 56.6509 50.041 59.0724C50.041 59.4684 50.1542 59.6042 50.5502 59.5816C51.1273 59.5476 51.7157 59.5476 52.3041 59.5816C52.7115 59.6042 52.8133 59.4458 52.802 59.0611C52.7794 57.5561 52.7907 56.0398 52.7907 54.5349C52.7907 53.1657 52.7907 53.211 54.1372 53.1431C54.8161 53.1091 55.2348 53.3468 55.6309 53.8786C57.1132 55.8248 58.6521 57.7372 60.1457 59.6721C60.3947 59.9889 60.5757 60.0681 60.9152 59.7966C61.3452 59.4571 61.7978 59.1516 62.273 58.8913C62.6917 58.6537 62.703 58.4613 62.4088 58.0879C60.8812 56.1983 59.3989 54.2633 57.8713 52.3736C57.5432 51.9663 57.5092 51.7173 57.86 51.2873C59.4102 49.4203 60.9039 47.474 62.4428 45.5617Z" fill="#1E1E1E"/>
</svg>
