<svg width="196" height="38" viewBox="0 0 196 38" fill="none" xmlns="http://www.w3.org/2000/svg">
<path d="M48.2892 20.0502C48.0634 22.6036 47.5002 26.021 46.2237 30.0007C48.7016 30.8263 50.992 30.6764 53.1707 30.0007C54.0339 23.4675 55.0854 18.8864 56.8133 16.8969C57.7898 17.3476 58.503 18.6239 58.9913 19.9002C60.2685 19.7503 61.4324 18.8871 62.2581 17.76C62.0706 19.0746 61.9957 20.3134 61.9957 21.4773C61.9957 26.2459 64.2861 30.6389 70.7065 30.6389C76.0763 30.6389 79.9064 25.0821 80.6197 19.9385L82.9851 19.7885C81.1829 25.0829 83.6615 30.6396 90.871 30.6396C98.0805 30.6396 100.859 23.5441 100.522 17.7991C102.361 17.6491 103.263 17.2734 104.614 16.7102C104.689 19.5636 102.7 26.4724 101.423 30.039C103.714 30.6029 106.342 30.9779 108.557 30.039C110.134 23.0176 111.073 16.9359 113.326 16.9359C116.255 16.9359 113.363 24.6704 112.274 30.0023C114.752 30.8279 117.043 30.6779 119.221 30.0023C120.085 23.4691 121.024 16.9359 124.479 16.9359C127.144 16.9359 122.939 22.6802 122.939 26.7357C122.939 28.9134 124.253 30.6404 127.295 30.6404C130.787 30.6404 134.317 26.8107 135.368 24.408C134.993 27.8995 136.983 30.6404 140.813 30.6404C144.681 30.6404 147.422 27.1489 148.924 24.408C148.774 28.2752 151.139 30.6404 154.294 30.6404C158.95 30.6404 161.203 26.9239 162.18 24.408L161.579 30.6404C165.259 30.7537 168 29.7765 168.675 24.408H170.741C173.594 34.6202 181.105 38 187.075 38C192.37 38 196.499 34.6959 195.148 29.3641C193.458 30.0398 191.168 30.6404 188.464 30.6404C184.86 30.6404 180.616 29.3258 175.134 24.408C179.977 23.6948 183.845 19.0387 183.845 15.4721C183.845 12.8437 182.231 10.666 179.977 10.666C176.861 10.666 173.181 12.1681 170.29 16.8984H169.539L170.666 13.4819C180.729 4.69523 178.888 -0.0351495 174.27 0.00234352C169.276 0.0398366 164.695 7.39941 162.217 21.967C160.714 23.5816 159.964 24.408 158.686 24.408C155.87 24.408 155.195 22.2303 156.321 17.4249C163.267 8.90148 166.647 0.0031242 160.301 0.0031242C155.12 0.0031242 151.214 6.72375 148.848 22.4185C147.459 23.5824 145.806 24.4088 144.342 24.4088C142.239 24.4088 141.112 22.8317 142.502 19.5276C148.172 15.0222 147.984 10.6293 143.066 10.6293C140.099 10.6293 137.283 11.8306 135.218 22.6817C134.166 23.6956 133.265 24.4088 131.312 24.4088C130.562 24.4088 130.373 23.6956 130.373 22.9067C130.373 20.8797 133.34 17.6131 133.34 14.684C133.34 12.2438 131.913 10.6293 129.547 10.6293C126.882 10.6293 123.615 12.3938 120.873 16.9375C121.699 12.8445 120.986 10.6293 118.019 10.6293C115.466 10.6293 113.663 12.3938 112.462 14.9465H112.011C112.499 10.6293 109.157 9.76538 105.44 11.3799C104.839 13.7451 103.45 14.0083 100.672 14.4583C100.183 11.8298 99.2444 10.666 96.0151 10.6285C94.8511 10.6285 93.2739 11.1917 92.824 12.0931C92.5615 11.3424 92.035 10.7418 91.0968 10.6285C87.9807 10.2903 85.352 13.4069 84.1506 16.4852C82.9116 16.8609 81.6719 16.9367 80.433 16.8984C80.5454 13.5569 79.2315 10.5902 75.5139 10.6285C74.1625 10.6285 72.6228 11.0792 70.8581 12.1681C73.486 9.50215 75.5897 4.95924 75.5139 2.894C75.4764 0.90452 74.2374 0.0031242 72.6985 0.0031242C68.7927 0.0031242 65.3758 5.82314 63.4986 12.1681C63.0854 11.2674 62.2597 10.6285 60.8692 10.6285C58.2038 10.6285 55.9884 13.2194 54.5612 16.8984C55.2369 11.3791 55.0862 9.65212 47.7642 11.3042C48.0267 12.8054 48.065 15.5088 47.84 16.8984C46.676 20.9906 43.8216 24.408 41.7562 24.408C38.3768 24.408 41.6437 15.8096 43.4084 11.2292C36.8746 9.27641 35.5982 11.7174 33.3828 21.1414C33.1578 21.892 31.7689 24.408 29.7409 24.408C26.6615 24.408 27.6755 19.6018 29.4027 14.9457C33.571 14.0076 33.9093 11.0409 32.1813 8.48827C27.2248 10.741 21.2167 10.741 16.2602 10.666L17.1992 7.58766C14.3073 7.24944 9.35147 6.87373 8.03676 10.4785C4.73239 11.0042 0.000808008 10.1028 0.113297 15.6221C1.99124 15.3214 4.13166 15.0964 6.00883 15.2089C4.05667 19.0387 3.15519 22.2303 3.15519 24.6704C3.15519 28.5377 5.93383 30.6404 9.05072 30.6404C13.8198 30.6404 17.4991 28.8759 17.8374 23.7698C16.7484 24.4463 15.3212 24.408 14.383 24.408C12.2426 24.408 11.8676 19.9401 14.3073 15.0214C15.2087 15.2472 20.5035 15.6221 22.6065 15.0214C20.7668 18.0623 19.827 21.4413 19.677 24.0331C19.4513 28.3135 21.7042 30.6404 24.8211 30.6404C28.727 30.6404 30.9416 28.2752 33.1203 24.408H33.4585C32.782 27.787 34.96 30.6404 37.7019 30.6404C43.2967 30.6404 46.526 24.8962 47.99 20.0525H48.2892V20.0502ZM140.774 3.71728C140.774 5.78252 142.577 7.43456 144.905 7.43456C147.233 7.43456 149.111 5.78174 149.111 3.71728C149.111 1.65204 147.234 0 144.905 0C142.577 0 140.774 1.65204 140.774 3.71728ZM97.7422 18.2099C97.6297 20.5759 96.1275 24.4056 92.6349 24.4056C89.8938 24.4056 89.0681 21.5523 89.932 18.9988C91.6592 18.0224 92.6349 16.9336 93.0489 14.8683C93.1989 16.6329 95.0761 18.3599 97.7422 18.2099ZM77.6152 19.5995C77.202 21.7022 75.5881 24.4056 72.6212 24.4056C70.744 24.4056 68.9036 23.2035 68.9036 20.8016C68.9036 18.4356 69.5793 16.4079 70.18 15.0191C70.6683 18.5856 74.9116 19.9369 77.6152 19.5995ZM169.724 19.4487C171.077 17.8342 172.353 16.8953 174.119 16.8953C174.982 16.8953 175.32 17.7584 175.32 18.5099C175.32 20.0869 172.091 22.3396 169.011 21.9639L169.724 19.4487Z" fill="#1E1E1E"/>
</svg>
