<svg width="106" height="40" viewBox="0 0 106 40" fill="none" xmlns="http://www.w3.org/2000/svg">
<path d="M10.9428 21.6709L4.94774 35.1351H0.574219L7.15894 20.737C4.06316 19.1645 1.99931 16.3144 1.99931 11.0565C1.99931 3.68551 6.66758 0 12.2204 0H17.8714V35.1351H14.0877V21.6709H10.9428ZM14.0877 3.19411H12.0729C9.02628 3.19411 6.07786 5.20881 6.07786 11.0565C6.07786 16.7075 8.7806 18.5256 12.0729 18.5256H14.0877V3.19411Z" fill="#1E1E1E"/>
<path d="M36.102 10.3683V35.1349H32.3182V24.0293H26.618V35.1349H22.7852V10.3683H26.618V20.8842H32.3182V10.3683H36.102ZM55.8071 39.9999H52.3672V35.1349H41.753V39.9999H38.3132V31.99H39.8366C42.097 26.732 42.3427 19.066 42.3427 12.4813V10.3683H53.8415V31.99H55.8071V39.9999ZM50.0577 13.4642H45.7825V13.9064C45.7825 19.1152 45.5368 26.732 43.473 31.99H50.0577V13.4642ZM66.3721 35.4788C61.2617 35.4788 58.1167 31.4003 58.1167 23.7838C58.1167 15.8229 60.3281 10.0244 65.586 10.0244C69.7138 10.0244 72.4165 13.1202 72.4165 21.5233V23.6363H62.097C62.097 29.2381 63.6694 32.1867 66.716 32.1867C68.8782 32.1867 70.5982 31.2039 71.5809 30.5159L72.4657 33.4641C70.7199 34.8039 68.5724 35.5139 66.3721 35.4788ZM62.1461 20.4912H68.4852C68.4852 16.2651 67.7971 13.1694 65.586 13.1694C63.2272 13.1694 62.3919 16.0686 62.1461 20.4912ZM80.1805 22.801V35.1349H76.3475V10.3683H80.1805V21.818L86.1262 10.3683H90.0084L83.866 22.0146L90.8928 35.1349H86.7159L80.1805 22.801ZM91.3842 22.7519C91.3842 14.9875 94.3819 10.0244 100.18 10.0244C102.391 10.0244 103.669 10.6141 104.75 11.302L104.21 14.9384C103.178 14.0538 101.704 13.2185 100.131 13.2185C97.3794 13.2185 95.4138 16.3143 95.4138 22.5552C95.4138 28.7467 96.888 32.2847 99.9837 32.2847C101.516 32.3053 103.002 31.7633 104.161 30.7614L105.045 33.6117C103.623 34.8636 101.779 35.5307 99.8854 35.4788C94.5783 35.4788 91.3842 31.2039 91.3842 22.7519Z" fill="#1E1E1E"/>
</svg>
