<svg width="144" height="48" viewBox="0 0 144 48" fill="none" xmlns="http://www.w3.org/2000/svg">
<rect x="0.5" y="0.5" width="143" height="47" stroke="black"/>
<path d="M33.6473 33.4786L33.6473 33.4786C32.8803 34.52 32.2779 35.2041 31.8402 35.5661L31.84 35.5659L31.8294 35.5752C31.1499 36.1703 30.4519 36.4529 29.7228 36.4705C29.1863 36.4695 28.5028 36.3224 27.6656 35.9945L27.6643 35.9941C26.7453 35.6371 25.8783 35.4514 25.0663 35.4514C24.2213 35.4514 23.3323 35.6358 22.4016 35.9934L22.4011 35.9936C21.5344 36.3276 20.881 36.483 20.4171 36.498L20.413 36.4982C19.7488 36.5251 19.0416 36.252 18.2793 35.577L18.2734 35.5718L18.2673 35.5667C17.7869 35.1677 17.1556 34.4556 16.3713 33.3999L16.3707 33.399C15.5552 32.3065 14.88 31.0334 14.3484 29.5719C13.7805 27.9965 13.5 26.483 13.5 25.0272C13.5 23.3623 13.877 21.9554 14.6107 20.7888L14.6107 20.7888L14.6133 20.7846C15.1913 19.8452 15.9575 19.1068 16.9204 18.5626C17.881 18.0196 18.9173 17.7423 20.0404 17.7239C20.6149 17.7247 21.4153 17.8969 22.4693 18.2713C23.0103 18.4646 23.4626 18.6133 23.8222 18.7142C24.1661 18.8106 24.473 18.8778 24.6997 18.8778C24.8174 18.8778 24.9553 18.8516 25.0818 18.8226C25.2199 18.7909 25.3883 18.7451 25.5842 18.6868C25.9764 18.5702 26.4998 18.3974 27.1504 18.17C28.3411 17.7622 29.3024 17.6094 30.0555 17.6703L30.0575 17.6705C32.0138 17.8208 33.4846 18.4861 34.5206 19.6391C32.6564 20.8831 31.6957 22.5944 31.7161 24.7445L31.7161 24.7454C31.7362 26.5447 32.4289 28.0588 33.7758 29.2484C34.2591 29.6847 34.7886 30.0431 35.366 30.3231C35.2681 30.5749 35.1668 30.8195 35.0617 31.0574C34.6628 31.9345 34.1918 32.7396 33.6473 33.4786ZM26.4492 13.3152L26.4516 13.3126C26.9071 12.8148 27.4945 12.3916 28.2242 12.0484C28.7654 11.7974 29.2734 11.6345 29.749 11.5542C29.7405 12.7006 29.2996 13.7887 28.3826 14.8255C27.3679 15.9546 26.2118 16.6055 24.9985 16.6539C24.9985 16.6531 24.9985 16.6524 24.9985 16.6516C24.9985 15.5515 25.5053 14.3325 26.4492 13.3152Z" fill="#1E1E1E" stroke="#1E1E1E"/>
<path d="M55.696 14.636C55.696 13.484 55.072 12.704 53.968 12.368C54.832 12.02 55.312 11.372 55.312 10.556C55.312 9.332 54.268 8.432 52.444 8.432C51.496 8.432 50.524 8.672 49.84 9.104V10.568H49.996C50.62 9.98 51.388 9.692 52.288 9.692C53.332 9.692 53.896 10.124 53.896 10.796C53.896 11.48 53.344 11.948 52.144 11.948H51.184V13.1H52.192C53.452 13.1 54.268 13.556 54.268 14.504C54.268 15.38 53.584 15.908 52.276 15.908C51.184 15.908 50.26 15.584 49.636 14.912H49.468V16.484C50.26 16.94 51.208 17.168 52.3 17.168C54.592 17.168 55.696 16.208 55.696 14.636ZM62.1216 13.208C62.1216 11.54 61.0656 10.808 59.5656 10.808C58.9056 10.808 58.1736 10.94 57.5016 11.216V12.44H57.6336C58.1976 12.116 58.7736 11.948 59.3496 11.948C60.2496 11.948 60.8376 12.368 60.8376 13.328V13.808C60.4176 13.46 59.8776 13.292 59.2056 13.292C57.7896 13.292 56.8416 14.096 56.8416 15.224C56.8416 16.34 57.7416 17.168 59.1216 17.168C59.9016 17.168 60.5736 16.88 61.0056 16.4V17H62.1216V13.208ZM60.9336 15.176C60.9336 15.692 60.4296 16.076 59.5296 16.076C58.6296 16.076 58.1256 15.692 58.1256 15.176C58.1256 14.684 58.6296 14.276 59.5296 14.276C60.4296 14.276 60.9336 14.684 60.9336 15.176ZM68.0961 10.976H64.0041V17H65.2881V12.032H68.0961V10.976ZM75.6108 13.988C75.6108 11.912 74.2068 10.808 72.7668 10.808C71.9148 10.808 71.1468 11.204 70.6308 11.936V10.976H69.5148V19.328H70.7988V16.268C71.3148 16.856 72.0108 17.168 72.7788 17.168C74.2188 17.168 75.6108 16.064 75.6108 13.988ZM74.3028 13.988C74.3028 15.356 73.4028 15.98 72.5028 15.98C71.6028 15.98 70.7028 15.356 70.7028 13.988C70.7028 12.62 71.6028 11.996 72.5028 11.996C73.4028 11.996 74.3028 12.62 74.3028 13.988ZM80.7881 10.976L79.3241 14.672L77.6681 10.976H76.2641L78.6521 16.016L77.2601 19.328H78.6521L82.1441 10.976H80.7881ZM88.0022 15.308C88.0022 14.552 87.5702 14.012 86.7902 13.772C87.4142 13.496 87.7742 13.028 87.7742 12.416C87.7742 11.456 86.8502 10.808 85.4102 10.808C84.6662 10.808 83.9822 10.952 83.3702 11.228V12.524H83.4902C83.9942 12.128 84.5822 11.936 85.2542 11.936C86.0582 11.936 86.4662 12.2 86.4662 12.632C86.4662 13.028 86.1182 13.352 85.2662 13.352H84.3782V14.348H85.2062C86.1662 14.348 86.7062 14.66 86.7062 15.188C86.7062 15.752 86.1542 16.04 85.2902 16.04C84.4742 16.04 83.8142 15.824 83.3222 15.38H83.1902V16.7C83.7902 17.012 84.5102 17.168 85.3622 17.168C87.0062 17.168 88.0022 16.46 88.0022 15.308ZM93.928 10.976L90.94 14.948V10.976H89.656V17H90.676L93.664 13.028V17H94.948V10.976H93.928ZM101.292 10.976H96.2642V12.032H98.1362V17H99.4202V12.032H101.292V10.976ZM107.929 14.216C107.953 14.024 107.965 13.82 107.965 13.616C107.953 12.692 107.701 11.984 107.197 11.516C106.693 11.048 106.033 10.808 105.229 10.808C103.573 10.808 102.121 11.888 102.121 13.988C102.121 16.088 103.609 17.168 105.349 17.168C106.069 17.168 106.861 16.976 107.569 16.58V15.296H107.425C106.765 15.8 106.093 16.052 105.397 16.052C104.341 16.052 103.477 15.464 103.381 14.216H107.929ZM103.441 13.292C103.645 12.368 104.317 11.852 105.217 11.852C106.117 11.852 106.645 12.344 106.729 13.292H103.441ZM117.655 15.248C117.655 14.528 117.259 14.012 116.551 13.772C117.031 13.52 117.271 13.124 117.271 12.584C117.271 11.624 116.455 10.976 115.219 10.976H112.495V17H115.519C116.779 17 117.655 16.304 117.655 15.248ZM115.063 12.008C115.675 12.008 115.963 12.32 115.963 12.716C115.963 13.112 115.675 13.424 115.063 13.424H113.779V12.008H115.063ZM116.347 15.164C116.347 15.632 115.975 15.968 115.351 15.968H113.779V14.36H115.351C115.975 14.36 116.347 14.72 116.347 15.164Z" fill="black"/>
<path d="M57.697 38H60.072L54.638 24.7H52.833L47.399 38H49.717L51.009 34.656H56.424L57.697 38ZM51.693 32.87L53.726 27.569L55.74 32.87H51.693ZM70.8447 33.231C70.8447 29.944 68.6217 28.196 66.3417 28.196C64.9927 28.196 63.7767 28.823 62.9597 29.982V28.462H61.1927V41.686H63.2257V36.841C64.0427 37.772 65.1447 38.266 66.3607 38.266C68.6407 38.266 70.8447 36.518 70.8447 33.231ZM68.7737 33.231C68.7737 35.397 67.3487 36.385 65.9237 36.385C64.4987 36.385 63.0737 35.397 63.0737 33.231C63.0737 31.065 64.4987 30.077 65.9237 30.077C67.3487 30.077 68.7737 31.065 68.7737 33.231ZM82.0896 33.231C82.0896 29.944 79.8666 28.196 77.5866 28.196C76.2376 28.196 75.0216 28.823 74.2046 29.982V28.462H72.4376V41.686H74.4706V36.841C75.2876 37.772 76.3896 38.266 77.6056 38.266C79.8856 38.266 82.0896 36.518 82.0896 33.231ZM80.0186 33.231C80.0186 35.397 78.5936 36.385 77.1686 36.385C75.7436 36.385 74.3186 35.397 74.3186 33.231C74.3186 31.065 75.7436 30.077 77.1686 30.077C78.5936 30.077 80.0186 31.065 80.0186 33.231ZM86.6911 37.221C87.9071 37.924 89.2751 38.266 90.7951 38.266C92.2391 38.266 93.4171 37.962 94.3101 37.335C95.2221 36.708 95.6781 35.739 95.6781 34.466C95.6781 32.965 94.9751 31.559 93.3221 30.875L90.7951 29.83C89.6931 29.374 89.1421 28.728 89.1421 27.911C89.1421 26.98 89.8071 26.391 91.2321 26.391C92.3911 26.391 93.5121 26.771 94.5761 27.55H94.8041V25.289C93.7211 24.719 92.5241 24.434 91.2321 24.434C89.9971 24.434 88.9711 24.719 88.1351 25.27C87.3181 25.821 86.9001 26.714 86.9001 27.911C86.9001 29.64 87.8311 30.989 89.5601 31.673L92.1441 32.737C92.9801 33.098 93.4361 33.744 93.4361 34.504C93.4361 35.568 92.5241 36.309 90.8331 36.309C89.4081 36.309 88.1161 35.777 86.9381 34.713H86.6911V37.221ZM102.953 30.134V28.462H100.122V25.422H98.1082V28.462H95.9422V30.134H98.1082V35.036C98.1082 37.012 99.2672 38 101.262 38H102.877V36.062H101.604C100.692 36.062 100.122 35.587 100.122 34.675V30.134H102.953ZM108.727 28.196C105.858 28.196 103.654 30.191 103.654 33.231C103.654 36.271 105.858 38.266 108.727 38.266C111.634 38.266 113.8 36.271 113.8 33.231C113.8 30.191 111.634 28.196 108.727 28.196ZM108.727 36.404C106.998 36.404 105.725 35.188 105.725 33.231C105.725 31.274 106.998 30.058 108.727 30.058C110.418 30.058 111.748 31.274 111.748 33.231C111.748 35.188 110.418 36.404 108.727 36.404ZM120.069 28.462C118.72 28.462 117.751 29.241 117.162 30.476V28.462H115.395V38H117.428V33.725C117.428 31.73 118.264 30.362 119.86 30.362H121.247V28.462H120.069ZM130.812 33.592C130.85 33.288 130.869 32.965 130.869 32.642C130.85 31.179 130.451 30.058 129.653 29.317C128.855 28.576 127.81 28.196 126.537 28.196C123.915 28.196 121.616 29.906 121.616 33.231C121.616 36.556 123.972 38.266 126.727 38.266C127.867 38.266 129.121 37.962 130.242 37.335V35.302H130.014C128.969 36.1 127.905 36.499 126.803 36.499C125.131 36.499 123.763 35.568 123.611 33.592H130.812ZM123.706 32.129C124.029 30.666 125.093 29.849 126.518 29.849C127.943 29.849 128.779 30.628 128.912 32.129H123.706Z" fill="black"/>
</svg>
