<svg width="161" height="48" viewBox="0 0 161 48" fill="none" xmlns="http://www.w3.org/2000/svg">
<rect x="0.5" y="0.5" width="160" height="47" stroke="black"/>
<path fill-rule="evenodd" clip-rule="evenodd" d="M13.9143 10.3231L27.8901 24.5101L13.9542 38.7062C13.625 38.357 13.416 37.8841 13.416 37.3391V11.6464C13.416 11.1245 13.6081 10.668 13.9143 10.3231ZM14.7597 9.75636L28.5907 23.7963L33.2488 19.0513L16.3702 9.88866C15.8389 9.60025 15.2617 9.58016 14.7597 9.75636ZM34.1629 19.5476L29.2926 24.5088L33.8335 29.1183L39.4659 25.8998C40.8264 25.1224 40.8049 23.1532 39.4278 22.4056L34.1629 19.5476ZM32.9354 29.6315L28.592 25.2225L14.8219 39.2498C15.3221 39.4073 15.8898 39.3718 16.4083 39.0756L32.9354 29.6315Z" fill="#1E1E1E"/>
<path d="M66.596 15.776V8.6H61.064L61.028 10.124C60.98 13.28 60.62 14.96 59.864 15.776H59.228V18.776H60.5V17H66.428V18.776H67.712V15.776H66.596ZM61.28 15.776C61.568 15.284 61.784 14.696 61.928 14.012C62.132 12.968 62.24 11.684 62.324 9.824H65.228V15.776H61.28ZM71.8526 10.808C70.0406 10.808 68.6486 12.068 68.6486 13.988C68.6486 15.908 70.0406 17.168 71.8526 17.168C73.6886 17.168 75.0566 15.908 75.0566 13.988C75.0566 12.068 73.6886 10.808 71.8526 10.808ZM71.8526 15.992C70.7606 15.992 69.9566 15.224 69.9566 13.988C69.9566 12.752 70.7606 11.984 71.8526 11.984C72.9206 11.984 73.7606 12.752 73.7606 13.988C73.7606 15.224 72.9206 15.992 71.8526 15.992ZM79.4483 10.808C77.6483 10.808 76.2803 12.056 76.2803 13.988C76.2803 15.944 77.6603 17.168 79.4963 17.168C80.1563 17.168 80.7443 17.012 81.2483 16.7V15.368H81.1043C80.6603 15.788 80.1323 15.992 79.5443 15.992C78.4043 15.992 77.5883 15.224 77.5883 13.988C77.5883 12.752 78.4283 11.984 79.4963 11.984C80.0123 11.984 80.5283 12.188 81.0443 12.596H81.1643V11.288C80.6363 10.964 80.0603 10.808 79.4483 10.808ZM87.3395 10.976H82.3115V12.032H84.1835V17H85.4675V12.032H87.3395V10.976ZM92.5342 10.976L91.0702 14.672L89.4142 10.976H88.0102L90.3982 16.016L89.0062 19.328H90.3982L93.8902 10.976H92.5342ZM95.2587 10.976V17H96.5427V12.032H99.0987V17H100.383V10.976H95.2587ZM106.275 10.976V13.304H103.659V10.976H102.375V17H103.659V14.36H106.275V17H107.559V10.976H106.275ZM112.381 10.808C110.569 10.808 109.177 12.068 109.177 13.988C109.177 15.908 110.569 17.168 112.381 17.168C114.217 17.168 115.585 15.908 115.585 13.988C115.585 12.068 114.217 10.808 112.381 10.808ZM112.381 15.992C111.289 15.992 110.485 15.224 110.485 13.988C110.485 12.752 111.289 11.984 112.381 11.984C113.449 11.984 114.289 12.752 114.289 13.988C114.289 15.224 113.449 15.992 112.381 15.992ZM125.297 15.248C125.297 14.528 124.901 14.012 124.193 13.772C124.673 13.52 124.913 13.124 124.913 12.584C124.913 11.624 124.097 10.976 122.861 10.976H120.137V17H123.161C124.421 17 125.297 16.304 125.297 15.248ZM122.705 12.008C123.317 12.008 123.605 12.32 123.605 12.716C123.605 13.112 123.317 13.424 122.705 13.424H121.421V12.008H122.705ZM123.989 15.164C123.989 15.632 123.617 15.968 122.993 15.968H121.421V14.36H122.993C123.617 14.36 123.989 14.72 123.989 15.164Z" fill="black"/>
<path d="M86.3617 29.0059C83.7518 29.0059 81.6856 30.9231 81.6856 33.5858C81.6856 36.142 83.7518 38.1657 86.3617 38.1657C88.9716 38.1657 91.0378 36.2485 91.0378 33.5858C91.0378 30.8166 88.9716 29.0059 86.3617 29.0059ZM86.3617 36.2485C84.948 36.2485 83.7518 35.0769 83.7518 33.4793C83.7518 31.8817 84.948 30.7101 86.3617 30.7101C87.7754 30.7101 88.9716 31.7751 88.9716 33.4793C88.9716 35.0769 87.7754 36.2485 86.3617 36.2485ZM76.2482 29.0059C73.6383 29.0059 71.5721 30.9231 71.5721 33.5858C71.5721 36.142 73.6383 38.1657 76.2482 38.1657C78.8582 38.1657 80.9243 36.2485 80.9243 33.5858C80.9243 30.8166 78.8582 29.0059 76.2482 29.0059ZM76.2482 36.2485C74.8345 36.2485 73.6383 35.0769 73.6383 33.4793C73.6383 31.8817 74.8345 30.7101 76.2482 30.7101C77.6619 30.7101 78.8582 31.7751 78.8582 33.4793C78.8582 35.0769 77.6619 36.2485 76.2482 36.2485ZM64.1773 30.3905V32.3077H68.8534C68.7447 33.3728 68.3097 34.2249 67.766 34.7574C67.1135 35.3965 66.026 36.142 64.1773 36.142C61.2411 36.142 59.0662 33.9053 59.0662 31.0296C59.0662 28.1538 61.3499 25.9172 64.1773 25.9172C65.6998 25.9172 66.896 26.5562 67.766 27.3018L69.1797 25.9172C67.9835 24.8521 66.461 24 64.2861 24C60.3712 24 57 27.1953 57 31.0296C57 34.8639 60.3712 38.0592 64.2861 38.0592C66.461 38.0592 67.9835 37.4201 69.2884 36.0355C70.5934 34.7574 71.0284 32.9467 71.0284 31.5621C71.0284 31.1361 71.0284 30.7101 70.9196 30.3905H64.1773ZM113.548 31.8817C113.113 30.8166 112.026 29.0059 109.634 29.0059C107.241 29.0059 105.284 30.8166 105.284 33.5858C105.284 36.142 107.241 38.1657 109.851 38.1657C111.917 38.1657 113.222 36.8876 113.657 36.142L112.135 35.0769C111.591 35.8225 110.939 36.355 109.851 36.355C108.764 36.355 108.111 35.929 107.567 34.9704L113.766 32.4142L113.548 31.8817ZM107.241 33.3728C107.241 31.6686 108.655 30.7101 109.634 30.7101C110.395 30.7101 111.156 31.1361 111.374 31.6686L107.241 33.3728ZM102.13 37.7396H104.196V24.426H102.13V37.7396ZM98.8676 29.9645C98.3239 29.432 97.4539 28.8994 96.3664 28.8994C94.0827 28.8994 91.9078 30.9231 91.9078 33.4793C91.9078 36.0355 93.974 37.9527 96.3664 37.9527C97.4539 37.9527 98.3239 37.4201 98.7589 36.8876H98.8676V37.5266C98.8676 39.2308 97.8889 40.1893 96.3664 40.1893C95.1702 40.1893 94.3002 39.3373 94.0827 38.5917L92.3428 39.3373C92.8865 40.5089 94.1915 42 96.4752 42C98.8676 42 100.825 40.6154 100.825 37.3136V29.2189H98.8676V29.9645ZM96.4752 36.2485C95.0615 36.2485 93.8652 35.0769 93.8652 33.4793C93.8652 31.8817 95.0615 30.7101 96.4752 30.7101C97.8889 30.7101 98.9764 31.8817 98.9764 33.4793C98.9764 35.0769 97.8889 36.2485 96.4752 36.2485ZM123.009 24.426H118.116V37.7396H120.182V32.7337H123.009C125.293 32.7337 127.468 31.1361 127.468 28.5799C127.468 26.0237 125.293 24.426 123.009 24.426ZM123.118 30.8166H120.182V26.2367H123.118C124.641 26.2367 125.511 27.5148 125.511 28.4734C125.402 29.645 124.532 30.8166 123.118 30.8166ZM135.624 28.8994C134.102 28.8994 132.579 29.5385 132.035 30.9231L133.884 31.6686C134.319 30.9231 134.972 30.7101 135.733 30.7101C136.82 30.7101 137.799 31.3491 137.908 32.4142V32.5207C137.582 32.3077 136.712 31.9882 135.842 31.9882C133.884 31.9882 131.927 33.0533 131.927 34.9704C131.927 36.7811 133.558 37.9527 135.298 37.9527C136.712 37.9527 137.364 37.3136 137.908 36.6746H138.017V37.7396H139.974V32.6272C139.757 30.284 137.908 28.8994 135.624 28.8994ZM135.407 36.2485C134.754 36.2485 133.775 35.929 133.775 35.0769C133.775 34.0118 134.972 33.6923 135.95 33.6923C136.82 33.6923 137.255 33.9053 137.799 34.1183C137.582 35.3965 136.494 36.2485 135.407 36.2485ZM146.825 29.2189L144.541 34.9704H144.433L142.04 29.2189H139.865L143.454 37.3136L141.388 41.787H143.454L149 29.2189H146.825ZM128.556 37.7396H130.622V24.426H128.556V37.7396Z" fill="black"/>
</svg>
