<svg width="24" height="24" viewBox="0 0 24 24" fill="none" xmlns="http://www.w3.org/2000/svg">
<circle cx="12" cy="9" r="2.5" stroke="#1E1E1E"/>
<path d="M19.5 10C19.5 12.8025 17.6148 15.6808 15.6263 17.9178C14.6438 19.0231 13.6597 19.9459 12.9207 20.5925C12.5516 20.9155 12.2445 21.1688 12.0306 21.3407C12.0201 21.3491 12.01 21.3572 12 21.3652C11.99 21.3572 11.9799 21.3491 11.9694 21.3407C11.7555 21.1688 11.4484 20.9155 11.0793 20.5925C10.3403 19.9459 9.35621 19.0231 8.3737 17.9178C6.38524 15.6808 4.5 12.8025 4.5 10C4.5 5.85786 7.85786 2.5 12 2.5C16.1421 2.5 19.5 5.85786 19.5 10Z" stroke="black"/>
</svg>
