<svg width="61" height="38" viewBox="0 0 61 38" fill="none" xmlns="http://www.w3.org/2000/svg">
<path fill-rule="evenodd" clip-rule="evenodd" d="M0.140625 32.2107V0.0747375H60.8001V32.2107H17.7262L10.8031 37.8214V32.2107H0.140625ZM42.8805 24.9658C41.656 24.9804 40.4433 24.7258 39.3292 24.2203L39.3354 24.2016C37.6788 23.4188 36.7262 22.0649 36.2562 20.3435C35.7486 18.4933 35.7047 16.5995 35.807 14.6975C35.8488 13.6835 36.0065 12.6775 36.2771 11.699C36.9811 9.28195 38.5876 7.83255 41.0464 7.37364C41.8745 7.23356 42.7132 7.1641 43.5532 7.16599C45.078 7.15353 46.6019 7.15768 48.1261 7.16183H48.1262L48.1264 7.16183C48.8887 7.16391 49.6511 7.16599 50.4136 7.16599H50.75V10.7355H50.4491C49.8964 10.7355 49.3446 10.7337 48.7926 10.7318H48.7924C47.6881 10.7281 46.5831 10.7244 45.4689 10.7355C44.621 10.7231 43.775 10.8187 42.9516 11.02C41.6229 11.3792 40.8918 12.2804 40.6536 13.599C40.3518 15.2522 40.3518 16.946 40.6536 18.5992C40.9001 20.0154 41.8757 21.008 43.3004 21.2156C44.1107 21.3359 44.9277 21.4052 45.7467 21.4233C46.8397 21.4357 47.9337 21.4316 49.0286 21.4274H49.0286C49.5764 21.4253 50.1244 21.4233 50.6727 21.4233H51.0069V24.9803H50.8293C50.193 24.9803 49.5568 24.981 48.9207 24.9817C46.9067 24.984 44.8936 24.9863 42.8805 24.9658ZM11.6993 22.9806C10.9718 22.1405 10.5129 21.1037 10.3812 20.0029H10.3707C10.2841 19.3461 10.2394 18.6844 10.237 18.022V7.52523V7.18676H14.812V7.5107C14.812 8.16033 14.8117 8.81003 14.8115 9.45978L14.8115 9.46667V9.46684C14.8102 12.4015 14.809 15.3374 14.8329 18.2732C14.8602 18.8238 14.9736 19.3667 15.1692 19.8825C15.2841 20.2135 15.475 20.5134 15.7266 20.7585C15.9782 21.0036 16.2837 21.1871 16.619 21.2945C17.7984 21.7185 19.0862 21.7397 20.279 21.3547C21.3632 21.0183 21.944 20.2106 22.1362 19.1204C22.21 18.6771 22.2463 18.2284 22.2448 17.779V7.49201V7.17015H26.7822C26.7944 7.22482 26.8021 7.28037 26.8052 7.33627C26.8052 8.29596 26.8061 9.25552 26.807 10.215L26.807 10.2268V10.227V10.2272C26.8098 13.1169 26.8125 16.0059 26.7906 18.8962C26.8074 20.1773 26.4402 21.4343 25.7356 22.5072C25.1337 23.3843 24.2786 24.0598 23.2831 24.4446C22.0276 24.9554 20.7094 25.1007 19.3766 25.163C17.9827 25.2399 16.5846 25.1422 15.2152 24.8723C13.8552 24.5941 12.629 24.0563 11.6993 22.9806ZM33.8139 7.19091H29.264V24.9658H33.8139V7.19091Z" fill="#1E1E1E"/>
</svg>
