<svg width="76" height="48" viewBox="0 0 76 48" fill="none" xmlns="http://www.w3.org/2000/svg">
<path fill-rule="evenodd" clip-rule="evenodd" d="M0.173828 40.687V0.0942383H75.7496V40.687H22.0837L13.4582 47.7742V40.687H0.173828ZM53.4236 31.5356C51.8979 31.554 50.3869 31.2324 48.9989 30.5939L49.0067 30.5703C46.9427 29.5815 45.7559 27.8713 45.1703 25.6969C44.5378 23.3598 44.4832 20.9677 44.6107 18.5651C44.6627 17.2843 44.8591 16.0136 45.1963 14.7775C46.0734 11.7244 48.0749 9.89359 51.1384 9.31392C52.1701 9.13698 53.215 9.04923 54.2616 9.05163C56.1615 9.03589 58.0603 9.04113 59.9594 9.04638H59.9595C60.9092 9.049 61.859 9.05163 62.809 9.05163H63.2281V13.5605H62.8533C62.1647 13.5605 61.4772 13.5581 60.7896 13.5558H60.7894C59.4134 13.5512 58.0367 13.5465 56.6484 13.5605C55.592 13.5448 54.538 13.6655 53.5121 13.9198C51.8567 14.3736 50.9458 15.512 50.649 17.1775C50.2731 19.2658 50.2731 21.4053 50.649 23.4936C50.9562 25.2824 52.1716 26.5362 53.9467 26.7985C54.9562 26.9504 55.9741 27.038 56.9945 27.0608C58.3563 27.0765 59.7191 27.0713 61.0832 27.0661H61.0833H61.0834C61.7659 27.0634 62.4487 27.0608 63.1318 27.0608H63.5482V31.5539H63.327C62.5357 31.5539 61.7446 31.5548 60.9536 31.5557L60.949 31.5557C58.4397 31.5586 55.9317 31.5615 53.4236 31.5356ZM14.5747 29.0281C13.6683 27.9668 13.0965 26.6572 12.9324 25.2668H12.9194C12.8114 24.4371 12.7558 23.6013 12.7528 22.7645V9.50547V9.07793H18.4528V9.48711C18.4528 10.3061 18.4525 11.1251 18.4521 11.9442L18.4521 11.958V11.9582C18.4506 15.6651 18.449 19.3735 18.4788 23.0819C18.5128 23.7773 18.6542 24.4631 18.8979 25.1146C19.041 25.5328 19.2788 25.9116 19.5923 26.2212C19.9058 26.5307 20.2864 26.7625 20.7042 26.8983C22.1735 27.4338 23.7781 27.4605 25.2642 26.9743C26.615 26.5494 27.3386 25.5291 27.578 24.152C27.6699 23.592 27.7152 23.0252 27.7134 22.4576V9.4635V9.05694H33.3665C33.3816 9.126 33.3912 9.19617 33.3951 9.26678C33.3951 10.484 33.3963 11.701 33.3974 12.918C33.4008 16.5682 33.4042 20.2177 33.3769 23.8687C33.3979 25.487 32.9404 27.0749 32.0625 28.4301C31.3126 29.538 30.2473 30.3912 29.0069 30.8773C27.4427 31.5225 25.8003 31.7061 24.1398 31.7848C22.4031 31.8819 20.6613 31.7585 18.9551 31.4176C17.2608 31.0661 15.7329 30.3868 14.5747 29.0281ZM42.1274 9.0831H36.4586V31.5356H42.1274V9.0831Z" fill="#1E1E1E"/>
</svg>
