<svg width="130" height="130" viewBox="0 0 130 130" fill="none" xmlns="http://www.w3.org/2000/svg">
<path fill-rule="evenodd" clip-rule="evenodd" d="M109.999 65.5H89.9993C89.9643 77.5662 88.6648 88.8501 86.4283 98.5H103.34C107.501 88.8975 109.933 77.6065 109.999 65.5ZM102.897 99.5H86.1918C82.6604 114.133 76.9492 124.848 70.2416 128.569C80.4641 126.877 89.6982 120.293 96.7106 110.384C99.0378 107.096 101.115 103.447 102.897 99.5ZM85.4016 98.5C87.6499 88.8883 88.964 77.6 88.9993 65.5H65.5V98.5H85.4016ZM65.5 99.5H85.1628C84.1808 103.531 83.0325 107.254 81.7443 110.603C79.5081 116.417 76.8699 121.054 73.9913 124.219C71.2691 127.213 68.4026 128.82 65.5 128.986V99.5ZM64.5 98.5V65.5H41.0007C41.036 77.6 42.3501 88.8883 44.5984 98.5H64.5ZM44.8372 99.5H64.5V128.986C61.5974 128.82 58.7309 127.213 56.0087 124.219C53.1301 121.054 50.4919 116.417 48.2557 110.603C46.9675 107.254 45.8192 103.531 44.8372 99.5ZM43.5717 98.5C41.3352 88.8501 40.0357 77.5662 40.0007 65.5H20.0013C20.0666 77.6065 22.4988 88.8975 26.6604 98.5H43.5717ZM27.1028 99.5H43.8082C47.3396 114.133 53.0508 124.848 59.7584 128.569C49.5359 126.877 40.3018 120.293 33.2894 110.384C30.9622 107.096 28.8846 103.447 27.1028 99.5ZM25.5718 98.5C21.4567 88.8501 19.0657 77.5662 19.0013 65.5H1.00191C1.09443 77.5932 4.54097 88.8879 10.4572 98.5H25.5718ZM11.0855 99.5H26.007C32.1939 113.433 42.0171 123.814 53.5966 127.987C35.7699 124.781 20.5069 114.193 11.0855 99.5ZM103.993 99.5H118.914C109.493 114.193 94.23 124.781 76.4034 127.987C87.9829 123.814 97.8061 113.433 103.993 99.5ZM119.543 98.5H104.428C108.543 88.8501 110.934 77.5662 110.999 65.5H128.998C128.906 77.5932 125.459 88.8879 119.543 98.5ZM89.9993 64.5C89.9655 52.8482 88.7526 41.9259 86.6554 32.4999H103.764C107.666 41.8827 109.936 52.8112 109.999 64.5H89.9993ZM70.2416 1.43102C77.101 5.23596 82.9185 16.356 86.4283 31.4999H103.34C101.462 27.1683 99.2332 23.1801 96.7106 19.6157C89.6982 9.70685 80.4641 3.12285 70.2416 1.43102ZM76.4048 2.0133C88.259 6.28618 98.2725 17.0651 104.428 31.4999H119.543C110.18 16.289 94.6326 5.29195 76.4048 2.0133ZM110.999 64.5C110.937 52.8482 108.705 41.9259 104.846 32.4999H120.146C125.693 41.8917 128.909 52.8237 128.998 64.5H110.999ZM65.5 31.4999H85.4016C84.3686 27.0838 83.1383 23.0215 81.7443 19.397C79.5081 13.5829 76.8699 8.94641 73.9913 5.78079C71.2691 2.78724 68.4026 1.1799 65.5 1.01426V31.4999ZM85.6308 32.4999H65.5V64.5H88.9993C88.9652 52.8172 87.739 41.891 85.6308 32.4999ZM64.5 1.01426V31.4999H44.5984C45.6314 27.0838 46.8617 23.0215 48.2557 19.397C50.4919 13.5829 53.1301 8.94641 56.0087 5.78079C58.7309 2.78724 61.5974 1.1799 64.5 1.01426ZM64.5 32.4999H44.3692C42.261 41.891 41.0348 52.8172 41.0007 64.5H64.5V32.4999ZM59.7584 1.43102C52.899 5.23596 47.0815 16.356 43.5717 31.4999H26.6604C28.5377 27.1683 30.7668 23.1801 33.2894 19.6157C40.3018 9.70685 49.5359 3.12285 59.7584 1.43102ZM43.3446 32.4999H26.2358C22.3338 41.8827 20.0643 52.8112 20.0013 64.5H40.0007C40.0345 52.8482 41.2474 41.9259 43.3446 32.4999ZM53.5952 2.0133C41.741 6.28618 31.7275 17.0651 25.5719 31.4999H10.4574C19.82 16.289 35.3674 5.29195 53.5952 2.0133ZM25.154 32.4999H9.85443C4.30744 41.8917 1.09128 52.8237 1.00191 64.5H19.0013C19.0635 52.8482 21.2952 41.9259 25.154 32.4999ZM0.00188368 64.5H0V65.0001V65.5H0.00188218C0.269298 101.002 28.9981 129.731 64.5 129.998V130H64.8727L65 130L65.1273 130H65.5V129.998C101.002 129.731 129.731 101.002 129.998 65.5H130V65.0001V64.5H129.998C129.731 28.9982 101.002 0.269473 65.5 0.002005V0H65H64.5V0.002005C28.9982 0.269473 0.269405 28.9982 0.00188368 64.5Z" fill="#E6B8B8"/>
</svg>
