<svg width="28" height="28" viewBox="0 0 28 28" fill="none" xmlns="http://www.w3.org/2000/svg">
<g opacity="0.2" clip-path="url(#clip0)">
<path fill-rule="evenodd" clip-rule="evenodd" d="M21 4.1H11C10.3176 4.1 9.71918 4.45978 9.38414 5H22.6159C22.2808 4.45978 21.6824 4.1 21 4.1ZM11 4C10.2597 4 9.61337 4.4022 9.26757 5H9C7.89543 5 7 5.89543 7 7V7.26757C6.4022 7.61337 6 8.25972 6 9V19C6 19.7403 6.4022 20.3866 7 20.7324V21C7 22.1046 7.89543 23 9 23H9.26756C9.61337 23.5978 10.2597 24 11 24H21C21.7403 24 22.3866 23.5978 22.7324 23H23C24.1046 23 25 22.1046 25 21V20.7324C25.5978 20.3866 26 19.7403 26 19V9C26 8.25972 25.5978 7.61337 25 7.26756V7C25 5.89543 24.1046 5 23 5H22.7324C22.3866 4.4022 21.7403 4 21 4H11ZM24.9 7.21346V7C24.9 5.95066 24.0493 5.1 23 5.1H22.7865C22.9231 5.37052 23 5.67628 23 6V7H24C24.3237 7 24.6295 7.07691 24.9 7.21346ZM23 7.1H24C24.3256 7.1 24.6321 7.18192 24.9 7.32626V20.6737C24.6321 20.8181 24.3256 20.9 24 20.9H23V7.1ZM22.9 7V6C22.9 5.67437 22.8181 5.36788 22.6737 5.1H9.32626C9.18192 5.36788 9.1 5.67437 9.1 6V7L22.9 7ZM9.1 7.1L22.9 7.1V20.9H9.1V7.1ZM9 7V6C9 5.67628 9.07691 5.37052 9.21346 5.1H9C7.95066 5.1 7.1 5.95066 7.1 7V7.21346C7.37052 7.07691 7.67628 7 8 7H9ZM7.1 7.32626C7.36788 7.18192 7.67437 7.1 8 7.1H9V20.9H8C7.67437 20.9 7.36788 20.8181 7.1 20.6737V7.32626ZM7 7.38414C6.45978 7.71918 6.1 8.31758 6.1 9L6.1 19C6.1 19.6824 6.45978 20.2808 7 20.6159V7.38414ZM7.1 20.7865V21C7.1 22.0493 7.95066 22.9 9 22.9H9.21346C9.07691 22.6295 9 22.3237 9 22V21H8C7.67628 21 7.37052 20.9231 7.1 20.7865ZM9.1 21V22C9.1 22.3256 9.18191 22.6321 9.32626 22.9H22.6737C22.8181 22.6321 22.9 22.3256 22.9 22V21H9.1ZM23 21V22C23 22.3237 22.9231 22.6295 22.7865 22.9H23C24.0493 22.9 24.9 22.0493 24.9 21V20.7865C24.6295 20.9231 24.3237 21 24 21H23ZM25 20.6159V7.38414C25.5402 7.71918 25.9 8.31757 25.9 9V19C25.9 19.6824 25.5402 20.2808 25 20.6159ZM11 23.9C10.3176 23.9 9.71918 23.5402 9.38414 23H22.6159C22.2808 23.5402 21.6824 23.9 21 23.9H11Z" fill="black"/>
<path fill-rule="evenodd" clip-rule="evenodd" d="M16 23.9C10.5324 23.9 6.1 19.4676 6.1 14C6.1 8.53238 10.5324 4.1 16 4.1C21.4676 4.1 25.9 8.53238 25.9 14C25.9 19.4676 21.4676 23.9 16 23.9ZM6 14C6 8.47715 10.4772 4 16 4C21.5228 4 26 8.47715 26 14C26 19.5228 21.5228 24 16 24C10.4772 24 6 19.5228 6 14ZM20.9 14C20.9 16.7062 18.7062 18.9 16 18.9C13.2938 18.9 11.1 16.7062 11.1 14C11.1 11.2938 13.2938 9.1 16 9.1C18.7062 9.1 20.9 11.2938 20.9 14ZM21 14C21 16.7614 18.7614 19 16 19C13.2386 19 11 16.7614 11 14C11 11.2386 13.2386 9 16 9C18.7614 9 21 11.2386 21 14Z" fill="black"/>
<path fill-rule="evenodd" clip-rule="evenodd" d="M15.95 10.05V13.95H12.05V10.05H15.95ZM15.95 9.95H12.05V2H11.95V9.95H4V10.05H11.95V13.95H4V14.05H11.95V17.95H4V18.05H11.95V26H12.05V18.05H15.95V26H16.05V18.05H19.95V26H20.05V18.05H28V17.95H20.05V14.05H28V13.95H20.05V10.05H28V9.95H20.05V2H19.95V9.95H16.05V2H15.95V9.95ZM16.05 10.05V13.95H19.95V10.05H16.05ZM19.95 14.05H16.05V17.95H19.95V14.05ZM15.95 17.95V14.05H12.05V17.95H15.95Z" fill="black"/>
<path d="M4 26L28 2M28 26L4 2" stroke="black" stroke-width="0.1"/>
</g>
<path d="M25 14L9 21L12 14M25 14L9 7L12 14M25 14H12" stroke="#FFF7F7"/>
<defs>
<clipPath id="clip0">
<rect width="24" height="24" fill="white" transform="translate(4 2)"/>
</clipPath>
</defs>
</svg>
