<svg width="631" height="631" viewBox="0 0 631 631" fill="none" xmlns="http://www.w3.org/2000/svg">
<rect x="186.494" y="421.811" width="94.1137" height="124.55" transform="rotate(-45 186.494 421.811)" stroke="#E6B8B8"/>
<mask id="path-2-inside-1" fill="white">
<path fill-rule="evenodd" clip-rule="evenodd" d="M425.777 359.146C425.815 359.183 425.852 359.221 425.889 359.258C440.376 373.744 437.063 400.543 418.491 419.116C399.919 437.687 373.121 441 358.634 426.514L358.634 426.515L243.627 311.507L310.883 244.252L425.777 359.146Z"/>
</mask>
<path d="M425.777 359.146L425.07 359.853L425.074 359.857L425.777 359.146ZM358.634 426.514L359.341 425.807L358.634 425.1L357.927 425.807L358.634 426.514ZM358.634 426.515L357.927 427.222L358.634 427.929L359.341 427.222L358.634 426.515ZM243.627 311.507L242.92 310.8L242.213 311.507L242.92 312.215L243.627 311.507ZM310.883 244.252L311.59 243.545L310.883 242.838L310.176 243.545L310.883 244.252ZM425.074 359.857C425.11 359.893 425.146 359.929 425.182 359.965L426.597 358.551C426.558 358.512 426.519 358.474 426.48 358.435L425.074 359.857ZM425.182 359.965C439.125 373.907 436.139 400.053 417.784 418.408L419.198 419.823C437.987 401.034 441.627 373.581 426.597 358.551L425.182 359.965ZM417.784 418.408C399.429 436.763 373.284 439.749 359.341 425.807L357.927 427.221C372.958 442.251 400.41 438.611 419.198 419.823L417.784 418.408ZM357.927 425.807L357.927 425.807L359.341 427.222L359.342 427.221L357.927 425.807ZM359.341 425.807L244.334 310.8L242.92 312.215L357.927 427.222L359.341 425.807ZM244.334 312.215L311.59 244.959L310.176 243.545L242.92 310.8L244.334 312.215ZM310.176 244.959L425.07 359.853L426.484 358.439L311.59 243.545L310.176 244.959Z" fill="#E6B8B8" mask="url(#path-2-inside-1)"/>
<mask id="path-4-inside-2" fill="white">
<path d="M284.991 218.369C288.48 221.858 291.065 226.183 292.599 231.097C294.132 236.01 294.584 241.416 293.929 247.006C293.273 252.596 291.523 258.26 288.778 263.675C286.034 269.09 282.348 274.15 277.932 278.566C273.516 282.982 268.456 286.668 263.041 289.413C257.626 292.157 251.962 293.907 246.372 294.563C240.782 295.218 235.376 294.766 230.463 293.233C225.549 291.699 221.224 289.114 217.735 285.625L251.363 251.997L284.991 218.369Z"/>
</mask>
<path d="M284.991 218.369C288.48 221.858 291.065 226.183 292.599 231.097C294.132 236.01 294.584 241.416 293.929 247.006C293.273 252.596 291.523 258.26 288.778 263.675C286.034 269.09 282.348 274.15 277.932 278.566C273.516 282.982 268.456 286.668 263.041 289.413C257.626 292.157 251.962 293.907 246.372 294.563C240.782 295.218 235.376 294.766 230.463 293.233C225.549 291.699 221.224 289.114 217.735 285.625L251.363 251.997L284.991 218.369Z" stroke="#E6B8B8" stroke-width="2" mask="url(#path-4-inside-2)"/>
<path d="M243.457 260.588L225.325 225.912L260.001 244.044L243.457 260.588Z" stroke="#E6B8B8"/>
<circle cx="221.769" cy="222.396" r="3.30455" transform="rotate(-45 221.769 222.396)" stroke="#E6B8B8"/>
<rect x="288.715" y="390.881" width="24.7427" height="23.7296" transform="rotate(-45 288.715 390.881)" stroke="#E6B8B8"/>
<rect x="372.787" y="306.81" width="24.7262" height="23.7296" transform="rotate(-45 372.787 306.81)" stroke="#E6B8B8"/>
<path d="M291.041 493.775L202.768 405.503" stroke="#E6B8B8"/>
<path d="M308.024 476.796L219.751 388.523" stroke="#E6B8B8"/>
<path d="M324.838 459.986L236.565 371.713" stroke="#E6B8B8"/>
<line x1="215.027" y1="451.053" x2="282.283" y2="383.797" stroke="#E6B8B8"/>
<line x1="244.619" y1="480.646" x2="311.875" y2="413.39" stroke="#E6B8B8"/>
<rect x="354.635" y="253.672" width="94.1137" height="124.55" transform="rotate(-45 354.635 253.672)" stroke="#E6B8B8"/>
<path d="M459.182 325.638L370.909 237.365" stroke="#E6B8B8"/>
<path d="M476.164 308.659L387.891 220.386" stroke="#E6B8B8"/>
<path d="M492.977 291.845L404.704 203.572" stroke="#E6B8B8"/>
<line x1="383.166" y1="282.919" x2="450.422" y2="215.663" stroke="#E6B8B8"/>
<line x1="412.756" y1="312.504" x2="480.011" y2="245.249" stroke="#E6B8B8"/>
<path d="M358.799 426.686L426.056 359.428" stroke="#E6B8B8"/>
<circle cx="347.875" cy="348.506" r="14.7182" transform="rotate(-45 347.875 348.506)" stroke="#E6B8B8"/>
<circle cx="472" cy="402.499" r="7.5" transform="rotate(-90 472 402.499)" stroke="#E6B8B8"/>
<circle cx="208" cy="493.501" r="7.5" transform="rotate(-90 208 493.501)" stroke="#E6B8B8"/>
<circle cx="331" cy="192.5" r="11.5" transform="rotate(-90 331 192.5)" stroke="#E6B8B8"/>
<circle cx="188.898" cy="472.6" r="3.5" transform="rotate(105 188.898 472.6)" stroke="#E6B8B8"/>
<circle cx="474.898" cy="476.601" r="3.5" transform="rotate(105 474.898 476.601)" stroke="#E6B8B8"/>
<circle cx="393.448" cy="477.015" r="5.5" transform="rotate(105 393.448 477.015)" stroke="#E6B8B8"/>
<circle cx="197.791" cy="348.542" r="5.5" transform="rotate(90 197.791 348.542)" stroke="#E6B8B8"/>
<circle cx="482" cy="192.499" r="5.5" transform="rotate(90 482 192.499)" stroke="#E6B8B8"/>
<circle cx="370" cy="185.5" r="5.5" transform="rotate(90 370 185.5)" stroke="#E6B8B8"/>
<circle cx="436" cy="467.499" r="15.5" transform="rotate(90 436 467.499)" stroke="#E6B8B8"/>
<circle cx="347.872" cy="348.506" r="23.2784" transform="rotate(-45 347.872 348.506)" stroke="#E6B8B8"/>
<path d="M208.559 242.172C204.649 239.559 201.601 235.845 199.802 231.5C198.002 227.155 197.531 222.374 198.448 217.762C199.366 213.149 201.631 208.912 204.956 205.587C208.282 202.261 212.518 199.996 217.131 199.079C221.744 198.161 226.525 198.632 230.87 200.432C235.215 202.232 238.928 205.28 241.541 209.19" stroke="#E6B8B8"/>
<path d="M195.349 261.943C187.529 256.718 181.433 249.29 177.834 240.6C174.234 231.91 173.292 222.348 175.127 213.123C176.962 203.898 181.492 195.424 188.143 188.773C194.794 182.122 203.267 177.593 212.493 175.758C221.718 173.923 231.28 174.865 239.97 178.464C248.66 182.064 256.087 188.159 261.312 195.98" stroke="#E6B8B8"/>
<path d="M182.135 281.717C170.404 273.878 161.261 262.737 155.862 249.703C150.463 236.668 149.05 222.325 151.802 208.487C154.555 194.649 161.349 181.938 171.325 171.962C181.302 161.986 194.012 155.192 207.85 152.439C221.688 149.687 236.031 151.099 249.066 156.498C262.101 161.898 273.242 171.041 281.08 182.772" stroke="#E6B8B8"/>
</svg>
