<svg width="24" height="24" viewBox="0 0 24 24" fill="none" xmlns="http://www.w3.org/2000/svg">
<path fill-rule="evenodd" clip-rule="evenodd" d="M11.5 18V22.9594C10.2305 22.7536 8.95429 21.7647 7.91403 19.9814C7.56882 19.3896 7.25987 18.725 6.99609 18H11.5ZM12.5 18V22.9594C13.7695 22.7536 15.0457 21.7647 16.086 19.9814C16.4312 19.3896 16.7401 18.725 17.0039 18H12.5ZM17.3277 17H12.5V12.5H17.9937C17.953 14.1227 17.7152 15.6449 17.3277 17ZM18.0635 18C17.4379 19.8541 16.5311 21.3947 15.4432 22.4504C17.8381 21.6617 19.8696 20.0728 21.2211 18H18.0635ZM21.8006 17H18.3653C18.7345 15.6208 18.9558 14.1008 18.994 12.5H22.9888C22.9166 14.1151 22.4961 15.6395 21.8006 17ZM11.5 17H6.67229C6.28478 15.6449 6.04699 14.1227 6.00626 12.5H11.5V17ZM5.63472 17C5.26545 15.6208 5.04424 14.1008 5.00597 12.5H1.01116C1.08341 14.1151 1.50393 15.6395 2.19942 17H5.63472ZM2.77893 18C4.13042 20.0728 6.16188 21.6617 8.55684 22.4504C7.46889 21.3947 6.56215 19.8541 5.93648 18H2.77893ZM17.9937 11.5H12.5V7H17.3277C17.7152 8.35511 17.953 9.87729 17.9937 11.5ZM12.5 1.04059V6H17.0039C16.7401 5.27502 16.4312 4.61039 16.086 4.01859C15.0457 2.23528 13.7695 1.24639 12.5 1.04059ZM18.994 11.5C18.9558 9.89918 18.7345 8.37924 18.3653 7H21.8006C22.4961 8.36052 22.9166 9.88495 22.9888 11.5H18.994ZM18.0635 6H21.2211C19.8696 3.92722 17.8381 2.33827 15.4432 1.54964C16.5311 2.60532 17.4379 4.14585 18.0635 6ZM6.99609 6H11.5V1.04059C10.2305 1.24639 8.95429 2.23528 7.91403 4.01859C7.56882 4.61039 7.25987 5.27502 6.99609 6ZM11.5 7H6.67229C6.28478 8.35511 6.04699 9.87729 6.00626 11.5H11.5V7ZM8.55683 1.54964C7.46889 2.60532 6.56214 4.14585 5.93648 6H2.77893C4.13041 3.92722 6.16188 2.33827 8.55683 1.54964ZM5.63472 7H2.19942C1.50393 8.36052 1.08341 9.88495 1.01116 11.5H5.00597C5.04424 9.89918 5.26545 8.37924 5.63472 7ZM12.5 0H12H11.5V0.0102278C5.10446 0.272357 0 5.54007 0 12C0 18.4599 5.10446 23.7276 11.5 23.9898V24H11.9932L12 24L12.0068 24H12.5V23.9898C18.8955 23.7276 24 18.4599 24 12C24 5.54007 18.8955 0.272357 12.5 0.0102278V0Z" fill="#1E1E1E"/>
</svg>
